<?xml version="1.0" encoding="UTF-8" standalone="no"?>
<!DOCTYPE svg PUBLIC "-//W3C//DTD SVG 1.1//EN"
 "http://www.w3.org/Graphics/SVG/1.1/DTD/svg11.dtd">
<!-- Generated by graphviz version 2.50.0 (20211204.2007)
 -->
<!-- Title: G Pages: 1 -->
<svg width="654pt" height="560pt"
 viewBox="0.00 0.00 653.89 559.94" xmlns="http://www.w3.org/2000/svg" xmlns:xlink="http://www.w3.org/1999/xlink">
<g id="graph0" class="graph" transform="scale(1 1) rotate(0) translate(4 555.94)">
<title>G</title>
<polygon fill="white" stroke="transparent" points="-4,4 -4,-555.94 649.89,-555.94 649.89,4 -4,4"/>
<!-- s1 -->
<g id="node1" class="node">
<title>s1</title>
<polygon fill="#9aceeb" stroke="black" points="96.64,-98.94 60.64,-98.94 60.64,-62.94 96.64,-62.94 96.64,-98.94"/>
<text text-anchor="middle" x="78.64" y="-77.24" font-family="Times,serif" font-size="14.00">A</text>
</g>
<!-- s2 -->
<g id="node2" class="node">
<title>s2</title>
<polygon fill="#9aceeb" stroke="black" points="351.29,-60.94 315.29,-60.94 315.29,-24.94 351.29,-24.94 351.29,-60.94"/>
<text text-anchor="middle" x="333.29" y="-39.24" font-family="Times,serif" font-size="14.00">X</text>
</g>
<!-- s1&#45;&gt;s2 -->
<g id="edge2" class="edge">
<title>s1&#45;&gt;s2</title>
<path fill="none" stroke="black" d="M96.92,-79.09C134.15,-79.02 224.66,-76.62 296.76,-57.01 299.49,-56.27 302.39,-55.29 305.17,-54.23"/>
<path fill="none" stroke="transparent" d="M96.92,-81.09C134.2,-81.02 224.71,-78.62 297.29,-58.94 300.13,-58.17 303.03,-57.19 305.88,-56.1"/>
<path fill="none" stroke="black" d="M96.92,-83.09C134.26,-83.02 224.76,-80.62 297.81,-60.87 300.77,-60.06 303.67,-59.08 306.6,-57.96"/>
<polygon fill="black" stroke="black" points="307.45,-59.23 315.26,-52.08 304.69,-52.8 307.45,-59.23"/>
<text text-anchor="middle" x="236.29" y="-81.74" font-family="Times,serif" font-size="14.00">f_recoveryA</text>
</g>
<!-- fs_3d -->
<g id="node11" class="node">
<title>fs_3d</title>
<ellipse fill="white" stroke="white" cx="333.29" cy="-118.94" rx="1.8" ry="1.8"/>
</g>
<!-- s1&#45;&gt;fs_3d -->
<g id="edge6" class="edge">
<title>s1&#45;&gt;fs_3d</title>
<path fill="none" stroke="black" d="M97.24,-82C116.37,-85.32 148.17,-90.75 175.59,-94.96 230.13,-103.34 295.59,-112.1 321.35,-115.49"/>
<path fill="none" stroke="transparent" d="M96.9,-83.97C116.03,-87.29 147.83,-92.72 175.29,-96.94 229.86,-105.33 295.32,-114.08 321.09,-117.47"/>
<path fill="none" stroke="black" d="M96.56,-85.94C115.7,-89.26 147.49,-94.69 174.98,-98.92 229.6,-107.31 295.06,-116.06 320.83,-119.46"/>
<polygon fill="black" stroke="black" points="320.92,-120.98 331.29,-118.81 321.83,-114.04 320.92,-120.98"/>
<text text-anchor="middle" x="236.29" y="-118.74" font-family="Times,serif" font-size="14.00">f_deathA</text>
</g>
<!-- s2&#45;&gt;s1 -->
<g id="edge1" class="edge">
<title>s2&#45;&gt;s1</title>
<path fill="none" stroke="black" d="M314.94,-43.04C285.93,-40.27 225.24,-36.42 175.66,-45.9 151.61,-50.43 125.37,-61.02 106.65,-69.65"/>
<path fill="none" stroke="transparent" d="M315.13,-41.04C286.05,-38.28 225.36,-34.43 175.29,-43.94 150.86,-48.58 124.62,-59.17 105.81,-67.83"/>
<path fill="none" stroke="black" d="M315.32,-39.05C286.18,-36.28 225.49,-32.43 174.91,-41.97 150.11,-46.73 123.87,-57.31 104.98,-66.02"/>
<polygon fill="black" stroke="black" points="104.25,-64.7 96.71,-72.15 107.24,-71.03 104.25,-64.7"/>
<text text-anchor="middle" x="236.29" y="-47.74" font-family="Times,serif" font-size="14.00">f_newInfectiousA</text>
</g>
<!-- s3 -->
<g id="node3" class="node">
<title>s3</title>
<polygon fill="#9aceeb" stroke="black" points="544.29,-79.94 508.29,-79.94 508.29,-43.94 544.29,-43.94 544.29,-79.94"/>
<text text-anchor="middle" x="526.29" y="-58.24" font-family="Times,serif" font-size="14.00">Y</text>
</g>
<!-- s2&#45;&gt;s3 -->
<g id="edge4" class="edge">
<title>s2&#45;&gt;s3</title>
<path fill="none" stroke="black" d="M352.45,-50.73C357.82,-53.26 364.03,-55.71 369.73,-56.99 413.4,-67.01 466.45,-65.2 497.83,-62.74"/>
<path fill="none" stroke="transparent" d="M351.6,-52.54C357.09,-55.12 363.29,-57.57 369.29,-58.94 413.47,-69 466.52,-67.2 497.98,-64.73"/>
<path fill="none" stroke="black" d="M350.75,-54.35C356.35,-56.98 362.56,-59.43 368.84,-60.89 413.53,-71 466.58,-69.2 498.14,-66.73"/>
<polygon fill="black" stroke="black" points="498.5,-68.2 508.16,-63.86 497.9,-61.23 498.5,-68.2"/>
<text text-anchor="middle" x="429.79" y="-70.74" font-family="Times,serif" font-size="14.00">f_newInfectiousY</text>
</g>
<!-- fs_5d -->
<g id="node12" class="node">
<title>fs_5d</title>
<ellipse fill="white" stroke="white" cx="526.29" cy="-4.94" rx="1.8" ry="1.8"/>
</g>
<!-- s2&#45;&gt;fs_5d -->
<g id="edge7" class="edge">
<title>s2&#45;&gt;fs_5d</title>
<path fill="none" stroke="black" d="M350.21,-26.34C355.74,-22.32 361.94,-18.55 368.6,-16.06 420.79,2.93 487.95,0.14 514.25,-1.9"/>
<path fill="none" stroke="transparent" d="M351.39,-27.96C356.78,-24.03 362.98,-20.25 369.29,-17.94 420.71,0.93 487.87,-1.85 514.1,-3.89"/>
<path fill="none" stroke="black" d="M352.57,-29.57C357.82,-25.74 364.02,-21.96 369.98,-19.82 420.63,-1.07 487.78,-3.85 513.95,-5.89"/>
<polygon fill="black" stroke="black" points="513.97,-7.4 524.25,-4.82 514.61,-0.42 513.97,-7.4"/>
<text text-anchor="middle" x="429.79" y="-21.74" font-family="Times,serif" font-size="14.00">f_deathX</text>
</g>
<!-- s3&#45;&gt;s2 -->
<g id="edge3" class="edge">
<title>s3&#45;&gt;s2</title>
<path fill="none" stroke="black" d="M507.18,-52.86C501.82,-50.01 495.59,-47.27 489.81,-45.88 446.4,-35.14 393.29,-38.02 361.86,-41.31"/>
<path fill="none" stroke="transparent" d="M508.11,-51.09C502.63,-48.18 496.39,-45.44 490.29,-43.94 446.29,-33.14 393.18,-36.03 361.66,-39.32"/>
<path fill="none" stroke="black" d="M509.05,-49.32C503.43,-46.35 497.2,-43.61 490.76,-42 446.18,-31.14 393.07,-34.03 361.45,-37.34"/>
<polygon fill="black" stroke="black" points="361,-35.88 351.46,-40.49 361.79,-42.83 361,-35.88"/>
<text text-anchor="middle" x="429.79" y="-47.74" font-family="Times,serif" font-size="14.00">f_recoveryY</text>
</g>
<!-- fs_2d -->
<g id="node13" class="node">
<title>fs_2d</title>
<ellipse fill="white" stroke="white" cx="644.09" cy="-61.94" rx="1.8" ry="1.8"/>
</g>
<!-- s3&#45;&gt;fs_2d -->
<g id="edge8" class="edge">
<title>s3&#45;&gt;fs_2d</title>
<path fill="none" stroke="black" d="M544.37,-59.94C568.47,-59.94 611.76,-59.94 632.04,-59.94"/>
<path fill="none" stroke="transparent" d="M544.37,-61.94C568.47,-61.94 611.76,-61.94 632.04,-61.94"/>
<path fill="none" stroke="black" d="M544.37,-63.94C568.47,-63.94 611.76,-63.94 632.04,-63.94"/>
<polygon fill="black" stroke="black" points="632.13,-65.44 642.13,-61.94 632.13,-58.44 632.13,-65.44"/>
<text text-anchor="middle" x="593.29" y="-65.74" font-family="Times,serif" font-size="14.00">f_deathY</text>
</g>
<!-- p1 -->
<g id="node4" class="node">
<title>p1</title>
<ellipse fill="none" stroke="black" cx="78.64" cy="-134.94" rx="18" ry="18"/>
<text text-anchor="middle" x="78.64" y="-131.24" font-family="Times,serif" font-size="14.00">μ</text>
</g>
<!-- p2 -->
<g id="node5" class="node">
<title>p2</title>
<ellipse fill="none" stroke="black" cx="78.64" cy="-191.94" rx="20.6" ry="20.6"/>
<text text-anchor="middle" x="78.64" y="-188.24" font-family="Times,serif" font-size="14.00">cβ</text>
</g>
<!-- p3 -->
<g id="node6" class="node">
<title>p3</title>
<ellipse fill="none" stroke="black" cx="78.64" cy="-248.94" rx="18" ry="18"/>
<text text-anchor="middle" x="78.64" y="-245.24" font-family="Times,serif" font-size="14.00">ϕ</text>
</g>
<!-- p4 -->
<g id="node7" class="node">
<title>p4</title>
<ellipse fill="none" stroke="black" cx="78.64" cy="-363.94" rx="78.79" ry="78.79"/>
<text text-anchor="middle" x="78.64" y="-360.24" font-family="Times,serif" font-size="14.00">ϕ_complement</text>
</g>
<!-- p5 -->
<g id="node8" class="node">
<title>p5</title>
<ellipse fill="none" stroke="black" cx="78.64" cy="-478.94" rx="18.7" ry="18.7"/>
<text text-anchor="middle" x="78.64" y="-475.24" font-family="Times,serif" font-size="14.00">σ′</text>
</g>
<!-- p6 -->
<g id="node9" class="node">
<title>p6</title>
<ellipse fill="none" stroke="black" cx="78.64" cy="-533.94" rx="18" ry="18"/>
<text text-anchor="middle" x="78.64" y="-530.24" font-family="Times,serif" font-size="14.00">σ</text>
</g>
<!-- fs_4u -->
<g id="node10" class="node">
<title>fs_4u</title>
<ellipse fill="white" stroke="white" cx="78.64" cy="-4.94" rx="1.8" ry="1.8"/>
</g>
<!-- fs_4u&#45;&gt;s2 -->
<g id="edge5" class="edge">
<title>fs_4u&#45;&gt;s2</title>
<path fill="none" stroke="black" d="M80.2,-2.85C91.14,-1.41 209.72,13.21 297.94,-17.05 301.26,-18.21 304.37,-19.65 307.5,-21.36"/>
<path fill="none" stroke="transparent" d="M80.46,-4.83C91.38,-3.39 209.96,11.23 297.29,-18.94 300.42,-20.02 303.53,-21.47 306.54,-23.11"/>
<path fill="none" stroke="black" d="M80.72,-6.81C91.63,-5.38 210.21,9.25 296.63,-20.83 299.58,-21.84 302.69,-23.28 305.58,-24.86"/>
<polygon fill="black" stroke="black" points="304.79,-26.15 315.13,-28.48 308.51,-20.21 304.79,-26.15"/>
<text text-anchor="middle" x="236.29" y="-22.74" font-family="Times,serif" font-size="14.00">f_births</text>
</g>
</g>
</svg>
