<?xml version="1.0" encoding="UTF-8" standalone="no"?>
<!DOCTYPE svg PUBLIC "-//W3C//DTD SVG 1.1//EN"
 "http://www.w3.org/Graphics/SVG/1.1/DTD/svg11.dtd">
<!-- Generated by graphviz version 2.50.0 (20211204.2007)
 -->
<!-- Title: G Pages: 1 -->
<svg width="635pt" height="292pt"
 viewBox="0.00 0.00 634.99 291.54" xmlns="http://www.w3.org/2000/svg" xmlns:xlink="http://www.w3.org/1999/xlink">
<g id="graph0" class="graph" transform="scale(1 1) rotate(0) translate(4 287.54)">
<title>G</title>
<polygon fill="white" stroke="transparent" points="-4,4 -4,-287.54 630.99,-287.54 630.99,4 -4,4"/>
<!-- s1 -->
<g id="node1" class="node">
<title>s1</title>
<polygon fill="#9aceeb" stroke="black" points="36,-56.85 0,-56.85 0,-20.85 36,-20.85 36,-56.85"/>
<text text-anchor="middle" x="18" y="-35.15" font-family="Times,serif" font-size="14.00">X</text>
</g>
<!-- v1 -->
<g id="node8" class="node">
<title>v1</title>
<text text-anchor="middle" x="100" y="-123.15" font-family="Times,serif" font-size="14.00">ϕ * λ</text>
</g>
<!-- s1&#45;&gt;v1 -->
<g id="edge3" class="edge">
<title>s1&#45;&gt;v1</title>
<path fill="none" stroke="black" d="M37.06,-55.74C50.79,-70.84 70.2,-92.2 83.93,-107.29"/>
<path fill="none" stroke="transparent" d="M35.58,-57.08C49.31,-72.18 68.72,-93.54 82.45,-108.64"/>
<path fill="none" stroke="black" d="M34.1,-58.43C47.83,-73.53 67.24,-94.89 80.97,-109.98"/>
</g>
<!-- sv1 -->
<g id="node11" class="node">
<title>sv1</title>
<ellipse fill="cornflowerblue" stroke="black" cx="473.89" cy="-18.85" rx="18.7" ry="18.7"/>
<text text-anchor="middle" x="473.89" y="-15.15" font-family="Times,serif" font-size="14.00">N</text>
</g>
<!-- s1&#45;&gt;sv1 -->
<g id="edge10" class="edge">
<title>s1&#45;&gt;sv1</title>
<path fill="none" stroke="black" d="M36.12,-30.84C41.71,-28.54 48.02,-26.28 54,-24.85 93.49,-15.43 104.44,-18.63 145,-16.85 255.86,-11.98 388.01,-15.69 444.75,-17.73"/>
<polygon fill="black" stroke="black" points="444.63,-21.23 454.75,-18.1 444.89,-14.23 444.63,-21.23"/>
</g>
<!-- s2 -->
<g id="node2" class="node">
<title>s2</title>
<polygon fill="#9aceeb" stroke="black" points="352.7,-156.85 316.7,-156.85 316.7,-120.85 352.7,-120.85 352.7,-156.85"/>
<text text-anchor="middle" x="334.7" y="-135.15" font-family="Times,serif" font-size="14.00">Y</text>
</g>
<!-- v2 -->
<g id="node9" class="node">
<title>v2</title>
<text text-anchor="middle" x="473.89" y="-219.15" font-family="Times,serif" font-size="14.00">Y * μ_temp2</text>
</g>
<!-- s2&#45;&gt;v2 -->
<g id="edge5" class="edge">
<title>s2&#45;&gt;v2</title>
<path fill="none" stroke="black" d="M353.98,-142.31C371.4,-152.11 398.89,-170.55 423.41,-185.13 433.25,-190.98 444.55,-197.08 454.04,-202.87"/>
<path fill="none" stroke="transparent" d="M353,-144.05C370.29,-153.77 397.77,-172.21 422.39,-186.85 432.3,-192.74 443.6,-198.84 453,-204.58"/>
<path fill="none" stroke="black" d="M352.02,-145.79C369.18,-155.43 396.66,-173.87 421.37,-188.57 431.35,-194.5 442.65,-200.6 451.95,-206.29"/>
</g>
<!-- s2&#45;&gt;v2 -->
<g id="edge8" class="edge">
<title>s2&#45;&gt;v2</title>
<path fill="none" stroke="black" d="M352.03,-156.95C367.24,-169.42 390.9,-185.6 413.51,-199.48"/>
<polygon fill="black" stroke="black" points="411.73,-202.49 422.1,-204.67 415.35,-196.5 411.73,-202.49"/>
</g>
<!-- v3 -->
<g id="node10" class="node">
<title>v3</title>
<text text-anchor="middle" x="473.89" y="-92.15" font-family="Times,serif" font-size="14.00">Y * σ</text>
</g>
<!-- s2&#45;&gt;v3 -->
<g id="edge1" class="edge">
<title>s2&#45;&gt;v3</title>
<path fill="none" stroke="black" d="M352.02,-127C375.82,-117.02 418.67,-103.33 446.42,-96.63"/>
<path fill="none" stroke="transparent" d="M352.79,-128.85C376.43,-118.92 419.28,-105.23 446.89,-98.57"/>
<path fill="none" stroke="black" d="M353.57,-130.69C377.04,-120.83 419.89,-107.14 447.36,-100.52"/>
</g>
<!-- s2&#45;&gt;v3 -->
<g id="edge7" class="edge">
<title>s2&#45;&gt;v3</title>
<path fill="none" stroke="black" d="M352.79,-138.13C373.84,-133.78 410.13,-122.86 437.33,-112.99"/>
<polygon fill="black" stroke="black" points="438.74,-116.2 446.89,-109.42 436.3,-109.64 438.74,-116.2"/>
</g>
<!-- s2&#45;&gt;sv1 -->
<g id="edge11" class="edge">
<title>s2&#45;&gt;sv1</title>
<path fill="none" stroke="black" d="M352.74,-131.49C362.8,-126.7 375.46,-119.86 385.39,-111.85 405.01,-96.02 405.2,-87.29 422.39,-68.85 431.99,-58.56 443.06,-47.51 452.38,-38.42"/>
<polygon fill="black" stroke="black" points="454.98,-40.78 459.74,-31.31 450.11,-35.75 454.98,-40.78"/>
</g>
<!-- sv2 -->
<g id="node12" class="node">
<title>sv2</title>
<ellipse fill="cornflowerblue" stroke="black" cx="473.89" cy="-164.85" rx="22.2" ry="22.2"/>
<text text-anchor="middle" x="473.89" y="-161.15" font-family="Times,serif" font-size="14.00">NI</text>
</g>
<!-- s2&#45;&gt;sv2 -->
<g id="edge9" class="edge">
<title>s2&#45;&gt;sv2</title>
<path fill="none" stroke="black" d="M352.79,-142.09C375.09,-146.31 414.48,-153.78 442.05,-159"/>
<polygon fill="black" stroke="black" points="441.5,-162.46 451.98,-160.89 442.81,-155.58 441.5,-162.46"/>
</g>
<!-- p1 -->
<g id="node3" class="node">
<title>p1</title>
<ellipse fill="none" stroke="black" cx="334.7" cy="-232.85" rx="50.89" ry="50.89"/>
<text text-anchor="middle" x="334.7" y="-229.15" font-family="Times,serif" font-size="14.00">μ_temp2</text>
</g>
<!-- p1&#45;&gt;v2 -->
<g id="edge13" class="edge">
<title>p1&#45;&gt;v2</title>
<path fill="none" stroke="black" d="M385.61,-229.21C394.2,-228.58 403.22,-227.93 412.06,-227.28"/>
<polygon fill="black" stroke="black" points="412.6,-230.75 422.32,-226.53 412.09,-223.77 412.6,-230.75"/>
</g>
<!-- p2 -->
<g id="node4" class="node">
<title>p2</title>
<ellipse fill="none" stroke="black" cx="18" cy="-157.85" rx="18" ry="18"/>
<text text-anchor="middle" x="18" y="-154.15" font-family="Times,serif" font-size="14.00">ϕ</text>
</g>
<!-- p2&#45;&gt;v1 -->
<g id="edge14" class="edge">
<title>p2&#45;&gt;v1</title>
<path fill="none" stroke="black" d="M35.19,-151.58C43.27,-148.44 53.39,-144.52 63.17,-140.73"/>
<polygon fill="black" stroke="black" points="64.7,-143.89 72.76,-137.02 62.17,-137.37 64.7,-143.89"/>
</g>
<!-- p3 -->
<g id="node5" class="node">
<title>p3</title>
<ellipse fill="none" stroke="black" cx="334.7" cy="-84.85" rx="18" ry="18"/>
<text text-anchor="middle" x="334.7" y="-81.15" font-family="Times,serif" font-size="14.00">σ</text>
</g>
<!-- p3&#45;&gt;v3 -->
<g id="edge12" class="edge">
<title>p3&#45;&gt;v3</title>
<path fill="none" stroke="black" d="M352.79,-86.22C373.66,-87.89 409.5,-90.77 436.61,-92.94"/>
<polygon fill="black" stroke="black" points="436.64,-96.45 446.89,-93.76 437.2,-89.48 436.64,-96.45"/>
</g>
<!-- p4 -->
<g id="node6" class="node">
<title>p4</title>
<ellipse fill="none" stroke="black" cx="18" cy="-103.85" rx="18" ry="18"/>
<text text-anchor="middle" x="18" y="-100.15" font-family="Times,serif" font-size="14.00">λ</text>
</g>
<!-- p4&#45;&gt;v1 -->
<g id="edge15" class="edge">
<title>p4&#45;&gt;v1</title>
<path fill="none" stroke="black" d="M35.58,-108.61C43.59,-110.92 53.55,-113.78 63.17,-116.55"/>
<polygon fill="black" stroke="black" points="62.42,-119.97 73,-119.37 64.35,-113.25 62.42,-119.97"/>
</g>
<!-- fs_2d -->
<g id="node7" class="node">
<title>fs_2d</title>
<ellipse fill="white" stroke="white" cx="625.19" cy="-222.85" rx="1.8" ry="1.8"/>
</g>
<!-- v1&#45;&gt;s2 -->
<g id="edge4" class="edge">
<title>v1&#45;&gt;s2</title>
<path fill="none" stroke="black" d="M127.34,-126.2C171.71,-128.49 261.1,-133.1 306.3,-135.43"/>
<path fill="none" stroke="transparent" d="M127.24,-128.2C171.6,-130.49 260.99,-135.1 306.19,-137.43"/>
<path fill="none" stroke="black" d="M127.14,-130.2C171.5,-132.49 260.89,-137.1 306.09,-139.43"/>
<polygon fill="black" stroke="black" points="306.26,-140.94 316.42,-137.96 306.62,-133.95 306.26,-140.94"/>
<text text-anchor="middle" x="205.5" y="-138.65" font-family="Times,serif" font-size="14.00">f_newInfectiousY</text>
</g>
<!-- v2&#45;&gt;fs_2d -->
<g id="edge6" class="edge">
<title>v2&#45;&gt;fs_2d</title>
<path fill="none" stroke="black" d="M525.44,-220.85C556.94,-220.85 594.87,-220.85 613.2,-220.85"/>
<path fill="none" stroke="transparent" d="M525.44,-222.85C556.94,-222.85 594.87,-222.85 613.2,-222.85"/>
<path fill="none" stroke="black" d="M525.44,-224.85C556.94,-224.85 594.87,-224.85 613.2,-224.85"/>
<polygon fill="black" stroke="black" points="613.21,-226.35 623.21,-222.85 613.21,-219.35 613.21,-226.35"/>
<text text-anchor="middle" x="574.39" y="-226.65" font-family="Times,serif" font-size="14.00">f_deathY</text>
</g>
<!-- v3&#45;&gt;s1 -->
<g id="edge2" class="edge">
<title>v3&#45;&gt;s1</title>
<path fill="none" stroke="black" d="M445.66,-83.24C428.81,-74.78 406.03,-64.72 384.93,-59.8 261.44,-30.71 107.58,-35.5 46.24,-38.99"/>
<path fill="none" stroke="transparent" d="M446.55,-81.45C429.61,-72.95 406.83,-62.89 385.39,-57.85 261.38,-28.71 107.52,-33.5 46.13,-37"/>
<path fill="none" stroke="black" d="M447.45,-79.66C430.42,-71.12 407.64,-61.06 385.85,-55.9 261.32,-26.71 107.46,-31.51 46.02,-35"/>
<polygon fill="black" stroke="black" points="45.87,-33.5 36.1,-37.6 46.29,-40.49 45.87,-33.5"/>
<text text-anchor="middle" x="205.5" y="-43.65" font-family="Times,serif" font-size="14.00">f_recoveryY</text>
</g>
</g>
</svg>
