<?xml version="1.0" encoding="UTF-8" standalone="no"?>
<!DOCTYPE svg PUBLIC "-//W3C//DTD SVG 1.1//EN"
 "http://www.w3.org/Graphics/SVG/1.1/DTD/svg11.dtd">
<!-- Generated by graphviz version 2.50.0 (20211204.2007)
 -->
<!-- Title: G Pages: 1 -->
<svg width="3172pt" height="959pt"
 viewBox="0.00 0.00 3171.89 958.69" xmlns="http://www.w3.org/2000/svg" xmlns:xlink="http://www.w3.org/1999/xlink">
<g id="graph0" class="graph" transform="scale(1 1) rotate(0) translate(4 954.69)">
<title>G</title>
<polygon fill="white" stroke="transparent" points="-4,4 -4,-954.69 3167.89,-954.69 3167.89,4 -4,4"/>
<!-- s1 -->
<g id="node1" class="node">
<title>s1</title>
<polygon fill="#9aceeb" stroke="black" points="799,-884.84 763,-884.84 763,-848.84 799,-848.84 799,-884.84"/>
<text text-anchor="middle" x="781" y="-863.14" font-family="Times,serif" font-size="14.00">VP</text>
</g>
<!-- s2 -->
<g id="node2" class="node">
<title>s2</title>
<polygon fill="#9aceeb" stroke="black" points="639,-732 603,-732 603,-696 639,-696 639,-732"/>
<text text-anchor="middle" x="621" y="-710.3" font-family="Times,serif" font-size="14.00">VF</text>
</g>
<!-- s1&#45;&gt;s2 -->
<g id="edge3" class="edge">
<title>s1&#45;&gt;s2</title>
<path fill="none" stroke="black" d="M762.14,-862.51C727.26,-851.39 652.3,-821.98 620.26,-765.98 616.22,-758.55 614.95,-750.41 614.88,-742.39"/>
<path fill="none" stroke="transparent" d="M762.75,-860.6C727.99,-849.53 653.03,-820.12 622,-765 618.19,-758.24 616.92,-750.1 616.88,-742.38"/>
<path fill="none" stroke="black" d="M763.35,-858.7C728.72,-847.66 653.76,-818.25 623.74,-764.02 620.17,-757.93 618.9,-749.79 618.88,-742.37"/>
<polygon fill="black" stroke="black" points="620.38,-742.45 617.46,-732.27 613.39,-742.05 620.38,-742.45"/>
<text text-anchor="middle" x="694.5" y="-753.8" font-family="Times,serif" font-size="14.00">fSeconddoseVaccine</text>
</g>
<!-- s3 -->
<g id="node3" class="node">
<title>s3</title>
<polygon fill="#9aceeb" stroke="black" points="723,-645 687,-645 687,-609 723,-609 723,-645"/>
<text text-anchor="middle" x="705" y="-623.3" font-family="Times,serif" font-size="14.00">E</text>
</g>
<!-- s1&#45;&gt;s3 -->
<g id="edge4" class="edge">
<title>s1&#45;&gt;s3</title>
<path fill="none" stroke="black" d="M782.9,-848.32C790.23,-811.31 802.41,-721.99 765.31,-664.07 758.2,-652.42 744.49,-644.03 732.18,-638.69"/>
<path fill="none" stroke="transparent" d="M784.86,-848.71C792.21,-811.58 804.39,-722.26 767,-663 759.25,-650.71 745.54,-642.33 732.98,-636.85"/>
<path fill="none" stroke="black" d="M786.82,-849.1C794.2,-811.85 806.37,-722.53 768.69,-661.93 760.29,-649 746.58,-640.62 733.78,-635.02"/>
<polygon fill="black" stroke="black" points="733.88,-633.45 723.29,-633.07 731.33,-639.97 733.88,-633.45"/>
<text text-anchor="middle" x="853" y="-710.3" font-family="Times,serif" font-size="14.00">fNewIncidenceVP</text>
</g>
<!-- s4 -->
<g id="node4" class="node">
<title>s4</title>
<polygon fill="#9aceeb" stroke="black" points="886,-36 850,-36 850,0 886,0 886,-36"/>
<text text-anchor="middle" x="868" y="-14.3" font-family="Times,serif" font-size="14.00">S</text>
</g>
<!-- s1&#45;&gt;s4 -->
<g id="edge8" class="edge">
<title>s1&#45;&gt;s4</title>
<path fill="none" stroke="black" d="M780.57,-848.33C783.09,-829.86 789.52,-801.06 806.51,-781.67 851.58,-733.48 935.92,-777.25 933,-715 933,-715 933,-715 933,-104 933.53,-77.85 911.63,-54.02 893.08,-38.84"/>
<path fill="none" stroke="transparent" d="M782.55,-848.6C785.04,-830.29 791.47,-801.5 808,-783 850.66,-735.26 935,-779.03 935,-715 935,-715 935,-715 935,-104 935,-76.5 913.11,-52.67 894.35,-37.29"/>
<path fill="none" stroke="black" d="M784.53,-848.87C786.99,-830.73 793.42,-801.93 809.49,-784.33 849.74,-737.03 934.08,-780.8 937,-715 937,-715 937,-715 937,-104 936.47,-75.15 914.58,-51.31 895.62,-35.74"/>
<polygon fill="black" stroke="black" points="896.35,-34.41 886.31,-31.04 892.05,-39.94 896.35,-34.41"/>
<text text-anchor="middle" x="1009" y="-445.8" font-family="Times,serif" font-size="14.00">fWaningImmunityVP</text>
</g>
<!-- s2&#45;&gt;s1 -->
<g id="edge2" class="edge">
<title>s2&#45;&gt;s1</title>
<path fill="none" stroke="black" d="M603.01,-717.93C563.26,-720.41 470.21,-728.64 452.55,-751.26 448.78,-755.06 449.03,-759.53 452.61,-763.81 488.13,-812.72 680.03,-847.82 753.04,-859.57"/>
<path fill="none" stroke="transparent" d="M602.89,-715.94C563.09,-718.42 470.04,-726.64 451,-750 446.79,-755.17 447.03,-759.64 451,-765 487.77,-814.68 679.67,-849.79 752.73,-861.54"/>
<path fill="none" stroke="black" d="M602.76,-713.94C562.91,-716.43 469.86,-724.65 449.45,-748.74 444.79,-755.28 445.04,-759.75 449.39,-766.19 487.41,-816.65 679.31,-851.76 752.41,-863.52"/>
<polygon fill="black" stroke="black" points="752.19,-865 762.61,-863.1 753.28,-858.08 752.19,-865"/>
<text text-anchor="middle" x="525" y="-753.8" font-family="Times,serif" font-size="14.00">fWaningImmunityVF</text>
</g>
<!-- s2&#45;&gt;s3 -->
<g id="edge5" class="edge">
<title>s2&#45;&gt;s3</title>
<path fill="none" stroke="black" d="M622.85,-695.12C625.89,-684.51 630.95,-671.51 639.5,-661.67 649.74,-650.28 663.79,-642.07 676.42,-636.27"/>
<path fill="none" stroke="transparent" d="M624.77,-695.67C627.75,-685.24 632.81,-672.23 641,-663 650.75,-652.01 664.8,-643.79 677.26,-638.09"/>
<path fill="none" stroke="black" d="M626.69,-696.22C629.61,-685.96 634.68,-672.96 642.5,-664.33 651.76,-653.74 665.81,-645.52 678.09,-639.91"/>
<polygon fill="black" stroke="black" points="678.95,-641.18 686.79,-634.06 676.22,-634.73 678.95,-641.18"/>
<text text-anchor="middle" x="704" y="-666.8" font-family="Times,serif" font-size="14.00">fNewIncidenceVF</text>
</g>
<!-- s5 -->
<g id="node5" class="node">
<title>s5</title>
<polygon fill="#9aceeb" stroke="black" points="494,-558 458,-558 458,-522 494,-522 494,-558"/>
<text text-anchor="middle" x="476" y="-536.3" font-family="Times,serif" font-size="14.00">IA</text>
</g>
<!-- s3&#45;&gt;s5 -->
<g id="edge9" class="edge">
<title>s3&#45;&gt;s5</title>
<path fill="none" stroke="black" d="M685.95,-621.06C645.91,-606.2 550.48,-570.78 503.05,-553.17"/>
<path fill="none" stroke="transparent" d="M686.65,-619.19C646.6,-604.32 551.18,-568.9 503.75,-551.3"/>
<path fill="none" stroke="black" d="M687.34,-617.31C647.3,-602.45 551.88,-567.03 504.44,-549.42"/>
<polygon fill="black" stroke="black" points="504.72,-547.93 494.12,-547.73 502.28,-554.49 504.72,-547.93"/>
<text text-anchor="middle" x="658.5" y="-579.8" font-family="Times,serif" font-size="14.00">fNewInfectious</text>
</g>
<!-- s4&#45;&gt;s1 -->
<g id="edge1" class="edge">
<title>s4&#45;&gt;s1</title>
<path fill="none" stroke="black" d="M886.3,-19.15C943.9,-26.47 1119.3,-52.79 1121,-104 1121,-715 1121,-715 1121,-715 1118.13,-795.56 1025.21,-750.65 949.41,-766.96 917.88,-773.47 832.13,-764.85 809.28,-784.54 793.58,-797.06 787.04,-820.63 784.52,-838.92"/>
<path fill="none" stroke="transparent" d="M886.05,-21.14C943.6,-28.45 1119,-54.77 1119,-104 1119,-715 1119,-715 1119,-715 1119,-793.76 1026.08,-748.85 949,-765 918.08,-771.48 832.33,-762.86 808,-783 791.66,-796.53 785.12,-820.1 782.54,-838.65"/>
<path fill="none" stroke="black" d="M885.8,-23.12C943.31,-30.43 1118.7,-56.75 1117,-104 1117,-715 1117,-715 1117,-715 1119.87,-791.96 1026.95,-747.05 948.59,-763.04 918.28,-769.49 832.53,-760.87 806.72,-781.46 789.73,-795.99 783.19,-819.56 780.56,-838.37"/>
<polygon fill="black" stroke="black" points="779.06,-838.29 781.46,-848.61 786.02,-839.04 779.06,-838.29"/>
<text text-anchor="middle" x="1182.5" y="-445.8" font-family="Times,serif" font-size="14.00">fFirstdoseVaccine</text>
</g>
<!-- s4&#45;&gt;s3 -->
<g id="edge6" class="edge">
<title>s4&#45;&gt;s3</title>
<path fill="none" stroke="black" d="M850.88,-32.64C831.21,-47.16 802.36,-73.9 803,-104 803,-541 803,-541 803,-541 802.05,-579.54 761.93,-604.27 733.34,-617.27"/>
<path fill="none" stroke="transparent" d="M849.69,-31.04C829.85,-45.69 801,-72.43 801,-104 801,-541 801,-541 801,-541 801,-577.84 760.88,-602.57 732.52,-615.45"/>
<path fill="none" stroke="black" d="M848.5,-29.43C828.5,-44.22 799.64,-70.97 799,-104 799,-541 799,-541 799,-541 799.95,-576.14 759.83,-600.87 731.69,-613.63"/>
<polygon fill="black" stroke="black" points="730.86,-612.35 723.06,-619.52 733.63,-618.78 730.86,-612.35"/>
<text text-anchor="middle" x="854" y="-345.3" font-family="Times,serif" font-size="14.00">fNewIncidence</text>
</g>
<!-- s6 -->
<g id="node6" class="node">
<title>s6</title>
<polygon fill="#9aceeb" stroke="black" points="222.5,-471 179.5,-471 179.5,-428 222.5,-428 222.5,-471"/>
<text text-anchor="middle" x="201" y="-445.8" font-family="Times,serif" font-size="14.00">IYU</text>
</g>
<!-- s5&#45;&gt;s6 -->
<g id="edge10" class="edge">
<title>s5&#45;&gt;s6</title>
<path fill="none" stroke="black" d="M457.61,-539.29C424.78,-535.82 353.97,-526.45 297.32,-505.88 273.58,-497.21 248.98,-483.58 230.35,-472.18"/>
<path fill="none" stroke="transparent" d="M457.82,-537.3C425.04,-533.83 354.23,-524.47 298,-504 274.55,-495.46 249.95,-481.84 231.39,-470.47"/>
<path fill="none" stroke="black" d="M458.03,-535.31C425.31,-531.85 354.49,-522.49 298.68,-502.12 275.52,-493.71 250.92,-480.09 232.43,-468.76"/>
<polygon fill="black" stroke="black" points="233.13,-467.43 222.8,-465.1 229.43,-473.37 233.13,-467.43"/>
<text text-anchor="middle" x="383.5" y="-492.8" font-family="Times,serif" font-size="14.00">fBecomingSymptomatic</text>
</g>
<!-- s9 -->
<g id="node9" class="node">
<title>s9</title>
<polygon fill="#9aceeb" stroke="black" points="578.5,-470 537.5,-470 537.5,-429 578.5,-429 578.5,-470"/>
<text text-anchor="middle" x="558" y="-445.8" font-family="Times,serif" font-size="14.00">IA2</text>
</g>
<!-- s5&#45;&gt;s9 -->
<g id="edge15" class="edge">
<title>s5&#45;&gt;s9</title>
<path fill="none" stroke="black" d="M470.12,-522.21C468.71,-511.61 468.78,-498.62 475.32,-487.91 487.38,-469.82 508.73,-460.12 526.96,-454.7"/>
<path fill="none" stroke="transparent" d="M472.1,-521.95C470.71,-511.62 470.78,-498.63 477,-489 488.21,-471.65 509.56,-461.94 527.53,-456.61"/>
<path fill="none" stroke="black" d="M474.08,-521.68C472.71,-511.63 472.78,-498.64 478.68,-490.09 489.04,-473.47 510.39,-463.76 528.1,-458.53"/>
<polygon fill="black" stroke="black" points="528.57,-459.96 537.35,-454.02 526.78,-453.19 528.57,-459.96"/>
<text text-anchor="middle" x="632" y="-492.8" font-family="Times,serif" font-size="14.00">fDevelopmentOfPersistentAsymptomaticity</text>
</g>
<!-- s7 -->
<g id="node7" class="node">
<title>s7</title>
<polygon fill="#9aceeb" stroke="black" points="363.5,-303 320.5,-303 320.5,-260 363.5,-260 363.5,-303"/>
<text text-anchor="middle" x="342" y="-277.8" font-family="Times,serif" font-size="14.00">IYN</text>
</g>
<!-- s6&#45;&gt;s7 -->
<g id="edge11" class="edge">
<title>s6&#45;&gt;s7</title>
<path fill="none" stroke="black" d="M221.88,-437.52C246.05,-426.29 284.98,-404.89 307.42,-375.77 321.64,-357.68 330.05,-332.12 334.69,-312.46"/>
<path fill="none" stroke="transparent" d="M222.72,-439.33C247.01,-428.04 285.95,-406.64 309,-377 323.54,-358.31 331.95,-332.75 336.63,-312.92"/>
<path fill="none" stroke="black" d="M223.57,-441.15C247.97,-429.79 286.91,-408.4 310.58,-378.23 325.44,-358.93 333.85,-333.37 338.58,-313.38"/>
<polygon fill="black" stroke="black" points="340.06,-313.66 338.76,-303.14 333.22,-312.17 340.06,-313.66"/>
<text text-anchor="middle" x="442.5" y="-398.8" font-family="Times,serif" font-size="14.00">fSymptomicsNotDevelopingComplications</text>
</g>
<!-- s11 -->
<g id="node11" class="node">
<title>s11</title>
<polygon fill="#9aceeb" stroke="black" points="56,-377 0,-377 0,-321 56,-321 56,-377"/>
<text text-anchor="middle" x="28" y="-345.3" font-family="Times,serif" font-size="14.00">HICU</text>
</g>
<!-- s6&#45;&gt;s11 -->
<g id="edge17" class="edge">
<title>s6&#45;&gt;s11</title>
<path fill="none" stroke="black" d="M179.07,-448.89C137.09,-445.3 47.57,-435.06 27.45,-411.26 21.82,-404.06 19.74,-395.82 19.31,-387.13"/>
<path fill="none" stroke="transparent" d="M179.24,-446.9C137.32,-443.31 47.8,-433.07 29,-410 23.76,-403.57 21.68,-395.33 21.31,-387.04"/>
<path fill="none" stroke="black" d="M179.41,-444.9C137.54,-441.32 48.02,-431.08 30.55,-408.74 25.7,-403.08 23.62,-394.84 23.31,-386.95"/>
<polygon fill="black" stroke="black" points="24.81,-387.11 21.6,-377.01 17.81,-386.9 24.81,-387.11"/>
<text text-anchor="middle" x="91.5" y="-398.8" font-family="Times,serif" font-size="14.00">f_HICUAdmission</text>
</g>
<!-- s12 -->
<g id="node12" class="node">
<title>s12</title>
<polygon fill="#9aceeb" stroke="black" points="235,-242 167,-242 167,-174 235,-174 235,-242"/>
<text text-anchor="middle" x="201" y="-204.3" font-family="Times,serif" font-size="14.00">HNICU</text>
</g>
<!-- s6&#45;&gt;s12 -->
<g id="edge18" class="edge">
<title>s6&#45;&gt;s12</title>
<path fill="none" stroke="black" d="M186.75,-428.72C179.11,-414.78 170.15,-395.88 166.05,-377.43 156.74,-334.11 168.8,-285.4 180.94,-251.2"/>
<path fill="none" stroke="transparent" d="M188.51,-427.76C180.92,-413.92 171.96,-395.03 168,-377 158.69,-334.59 170.75,-285.88 182.82,-251.86"/>
<path fill="none" stroke="black" d="M190.26,-426.8C182.73,-413.07 173.77,-394.17 169.95,-376.57 160.63,-335.07 172.69,-286.36 184.71,-252.53"/>
<polygon fill="black" stroke="black" points="186.19,-252.83 186.38,-242.24 179.63,-250.41 186.19,-252.83"/>
<text text-anchor="middle" x="236.5" y="-345.3" font-family="Times,serif" font-size="14.00">f_HNICUAdmission</text>
</g>
<!-- s8 -->
<g id="node8" class="node">
<title>s8</title>
<polygon fill="#9aceeb" stroke="black" points="447,-123 411,-123 411,-87 447,-87 447,-123"/>
<text text-anchor="middle" x="429" y="-101.3" font-family="Times,serif" font-size="14.00">R</text>
</g>
<!-- s7&#45;&gt;s8 -->
<g id="edge12" class="edge">
<title>s7&#45;&gt;s8</title>
<path fill="none" stroke="black" d="M350.53,-258.9C366.41,-227.05 396.82,-166.06 414.19,-131.22"/>
<path fill="none" stroke="transparent" d="M352.32,-259.8C368.2,-227.94 398.61,-166.96 415.98,-132.11"/>
<path fill="none" stroke="black" d="M354.11,-260.69C369.99,-228.84 400.4,-167.85 417.77,-133.01"/>
<polygon fill="black" stroke="black" points="419.18,-133.54 420.51,-123.03 412.92,-130.41 419.18,-133.54"/>
<text text-anchor="middle" x="447" y="-204.3" font-family="Times,serif" font-size="14.00">fNewRecovery</text>
</g>
<!-- s8&#45;&gt;s4 -->
<g id="edge7" class="edge">
<title>s8&#45;&gt;s4</title>
<path fill="none" stroke="black" d="M446.6,-97.5C483.97,-88.17 572.48,-66.58 647.62,-52.04 716.35,-38.74 797.74,-26.76 839.67,-20.87"/>
<path fill="none" stroke="transparent" d="M447.08,-99.44C484.45,-90.12 572.95,-68.52 648,-54 716.64,-40.72 798.03,-28.74 839.95,-22.85"/>
<path fill="none" stroke="black" d="M447.57,-101.38C484.92,-92.06 573.43,-70.46 648.38,-55.96 716.93,-42.7 798.33,-30.72 840.23,-24.83"/>
<polygon fill="black" stroke="black" points="840.54,-26.3 849.96,-21.45 839.58,-19.37 840.54,-26.3"/>
<text text-anchor="middle" x="717.5" y="-57.8" font-family="Times,serif" font-size="14.00">fWaningImmunityR</text>
</g>
<!-- s10 -->
<g id="node10" class="node">
<title>s10</title>
<polygon fill="#9aceeb" stroke="black" points="601.5,-302 560.5,-302 560.5,-261 601.5,-261 601.5,-302"/>
<text text-anchor="middle" x="581" y="-277.8" font-family="Times,serif" font-size="14.00">IA3</text>
</g>
<!-- s9&#45;&gt;s10 -->
<g id="edge16" class="edge">
<title>s9&#45;&gt;s10</title>
<path fill="none" stroke="black" d="M577.88,-439.48C591.51,-433.57 608.68,-423.48 616.24,-409.04 633.55,-379 615.62,-338.17 599.33,-311.64"/>
<path fill="none" stroke="transparent" d="M578.68,-441.31C592.53,-435.29 609.69,-425.2 618,-410 635.38,-378.2 617.45,-337.37 601.04,-310.59"/>
<path fill="none" stroke="black" d="M579.47,-443.15C593.54,-437.02 610.7,-426.93 619.76,-410.96 637.21,-377.4 619.29,-336.56 602.74,-309.55"/>
<polygon fill="black" stroke="black" points="603.92,-308.61 595.58,-302.09 598.03,-312.39 603.92,-308.61"/>
<text text-anchor="middle" x="696" y="-398.8" font-family="Times,serif" font-size="14.00">fProgressionIA2_IA3</text>
</g>
<!-- s10&#45;&gt;s8 -->
<g id="edge13" class="edge">
<title>s10&#45;&gt;s8</title>
<path fill="none" stroke="black" d="M566.6,-261.88C551.99,-239.86 526.72,-203.49 501.51,-175.33 486.82,-158.91 468.43,-141.99 453.73,-129.21"/>
<path fill="none" stroke="transparent" d="M568.26,-260.78C553.63,-238.72 528.37,-202.35 503,-174 488.18,-157.43 469.78,-140.51 455.04,-127.7"/>
<path fill="none" stroke="black" d="M569.93,-259.67C555.28,-237.57 530.01,-201.21 504.49,-172.67 489.53,-155.96 471.13,-139.04 456.35,-126.19"/>
<polygon fill="black" stroke="black" points="457.14,-124.88 447.27,-121.03 452.58,-130.2 457.14,-124.88"/>
<text text-anchor="middle" x="617" y="-204.3" font-family="Times,serif" font-size="14.00">fNewrecoveryIA3</text>
</g>
<!-- s11&#45;&gt;s12 -->
<g id="edge19" class="edge">
<title>s11&#45;&gt;s12</title>
<path fill="none" stroke="black" d="M38.07,-319.77C48.04,-299.96 63.94,-274.3 85.83,-258.38 113.04,-240.78 126.77,-253.32 152.16,-240.19 153.86,-239.4 155.62,-238.52 157.34,-237.62"/>
<path fill="none" stroke="transparent" d="M39.85,-320.67C49.74,-301.01 65.64,-275.35 87,-260 111.69,-242.25 125.42,-254.79 153,-242 154.75,-241.19 156.51,-240.31 158.27,-239.38"/>
<path fill="none" stroke="black" d="M41.64,-321.57C51.43,-302.06 67.34,-276.41 88.17,-261.62 110.34,-243.73 124.07,-256.27 153.84,-243.81 155.65,-242.98 157.41,-242.1 159.2,-241.15"/>
<polygon fill="black" stroke="black" points="160.01,-242.42 166.96,-234.42 156.54,-236.34 160.01,-242.42"/>
<text text-anchor="middle" x="120.5" y="-277.8" font-family="Times,serif" font-size="14.00">f_OutICU</text>
</g>
<!-- s13 -->
<g id="node13" class="node">
<title>s13</title>
<polygon fill="#9aceeb" stroke="black" points="54,-123 18,-123 18,-87 54,-87 54,-123"/>
<text text-anchor="middle" x="36" y="-101.3" font-family="Times,serif" font-size="14.00">D</text>
</g>
<!-- s11&#45;&gt;s13 -->
<g id="edge20" class="edge">
<title>s11&#45;&gt;s13</title>
<path fill="none" stroke="black" d="M23.16,-320.99C20.04,-286.64 16.1,-225.88 21.01,-173.81 22.31,-160.13 24.99,-145.31 27.6,-132.91"/>
<path fill="none" stroke="transparent" d="M25.15,-320.81C22.04,-286.51 18.1,-225.75 23,-174 24.28,-160.49 26.96,-145.67 29.56,-133.32"/>
<path fill="none" stroke="black" d="M27.15,-320.63C24.04,-286.38 20.09,-225.62 24.99,-174.19 26.25,-160.84 28.93,-146.02 31.51,-133.73"/>
<polygon fill="black" stroke="black" points="33.05,-133.72 31.78,-123.2 26.21,-132.22 33.05,-133.72"/>
<text text-anchor="middle" x="90.5" y="-204.3" font-family="Times,serif" font-size="14.00">f_NewDeathsHICU</text>
</g>
<!-- s12&#45;&gt;s8 -->
<g id="edge14" class="edge">
<title>s12&#45;&gt;s8</title>
<path fill="none" stroke="black" d="M219.43,-172.72C228.51,-160.45 240.08,-147.75 253.97,-139.29 300.5,-111.51 363.95,-105.19 400.38,-103.98"/>
<path fill="none" stroke="transparent" d="M221.04,-173.91C229.99,-161.8 241.55,-149.09 255,-141 300.7,-113.5 364.15,-107.18 400.45,-105.98"/>
<path fill="none" stroke="black" d="M222.65,-175.1C231.46,-163.15 243.03,-150.44 256.03,-142.71 300.9,-115.49 364.35,-109.17 400.52,-107.98"/>
<polygon fill="black" stroke="black" points="400.88,-109.47 410.8,-105.75 400.72,-102.47 400.88,-109.47"/>
<text text-anchor="middle" x="300.5" y="-144.8" font-family="Times,serif" font-size="14.00">f_RecoveryH</text>
</g>
<!-- s12&#45;&gt;s13 -->
<g id="edge21" class="edge">
<title>s12&#45;&gt;s13</title>
<path fill="none" stroke="black" d="M165.74,-182.94C161.34,-180.29 156.69,-177.79 152.2,-175.83 121.44,-160.95 105.69,-176.91 72.92,-157.68 63.14,-151.28 55.21,-142.12 48.92,-133.12"/>
<path fill="none" stroke="transparent" d="M166.77,-181.23C162.28,-178.53 157.63,-176.03 153,-174 120.02,-159.54 104.27,-175.51 74,-156 64.65,-149.98 56.72,-140.81 50.56,-131.97"/>
<path fill="none" stroke="black" d="M167.81,-179.51C163.23,-176.76 158.58,-174.27 153.8,-172.17 118.6,-158.14 102.85,-174.1 75.08,-154.32 66.16,-148.67 58.23,-139.51 52.2,-130.83"/>
<polygon fill="black" stroke="black" points="53.37,-129.87 45.01,-123.36 47.49,-133.66 53.37,-129.87"/>
<text text-anchor="middle" x="147.5" y="-144.8" font-family="Times,serif" font-size="14.00">f_NewDeathsHNICU</text>
</g>
<!-- p1 -->
<g id="node14" class="node">
<title>p1</title>
<ellipse fill="none" stroke="black" cx="901" cy="-866.84" rx="83.69" ry="83.69"/>
<text text-anchor="middle" x="901" y="-863.14" font-family="Times,serif" font-size="14.00">eP_complement</text>
</g>
<!-- p2 -->
<g id="node15" class="node">
<title>p2</title>
<ellipse fill="none" stroke="black" cx="1087" cy="-866.84" rx="83.69" ry="83.69"/>
<text text-anchor="middle" x="1087" y="-863.14" font-family="Times,serif" font-size="14.00">eF_complement</text>
</g>
<!-- p3 -->
<g id="node16" class="node">
<title>p3</title>
<ellipse fill="none" stroke="black" cx="1207" cy="-866.84" rx="18" ry="18"/>
<text text-anchor="middle" x="1207" y="-863.14" font-family="Times,serif" font-size="14.00">β</text>
</g>
<!-- p4 -->
<g id="node17" class="node">
<title>p4</title>
<ellipse fill="none" stroke="black" cx="1288" cy="-866.84" rx="45.49" ry="45.49"/>
<text text-anchor="middle" x="1288" y="-863.14" font-family="Times,serif" font-size="14.00">rLatent</text>
</g>
<!-- p5 -->
<g id="node18" class="node">
<title>p5</title>
<ellipse fill="none" stroke="black" cx="1416" cy="-866.84" rx="64.19" ry="64.19"/>
<text text-anchor="middle" x="1416" y="-863.14" font-family="Times,serif" font-size="14.00">rIncubation</text>
</g>
<!-- p6 -->
<g id="node19" class="node">
<title>p6</title>
<ellipse fill="none" stroke="black" cx="1551" cy="-866.84" rx="52.79" ry="52.79"/>
<text text-anchor="middle" x="1551" y="-863.14" font-family="Times,serif" font-size="14.00">rDevelop</text>
</g>
<!-- p7 -->
<g id="node20" class="node">
<title>p7</title>
<ellipse fill="none" stroke="black" cx="1679" cy="-866.84" rx="57.69" ry="57.69"/>
<text text-anchor="middle" x="1679" y="-863.14" font-family="Times,serif" font-size="14.00">rRecovery</text>
</g>
<!-- p8 -->
<g id="node21" class="node">
<title>p8</title>
<ellipse fill="none" stroke="black" cx="1778" cy="-866.84" rx="23" ry="23"/>
<text text-anchor="middle" x="1778" y="-863.14" font-family="Times,serif" font-size="14.00">rw</text>
</g>
<!-- p9 -->
<g id="node22" class="node">
<title>p9</title>
<ellipse fill="none" stroke="black" cx="1840" cy="-866.84" rx="20.6" ry="20.6"/>
<text text-anchor="middle" x="1840" y="-863.14" font-family="Times,serif" font-size="14.00">rv</text>
</g>
<!-- p10 -->
<g id="node23" class="node">
<title>p10</title>
<ellipse fill="none" stroke="black" cx="1902" cy="-866.84" rx="23" ry="23"/>
<text text-anchor="middle" x="1902" y="-863.14" font-family="Times,serif" font-size="14.00">rw</text>
</g>
<!-- p11 -->
<g id="node24" class="node">
<title>p11</title>
<ellipse fill="none" stroke="black" cx="2017" cy="-866.84" rx="74.19" ry="74.19"/>
<text text-anchor="middle" x="2017" y="-863.14" font-family="Times,serif" font-size="14.00">rIncubationIA</text>
</g>
<!-- p12 -->
<g id="node25" class="node">
<title>p12</title>
<ellipse fill="none" stroke="black" cx="2177" cy="-866.84" rx="68.49" ry="68.49"/>
<text text-anchor="middle" x="2177" y="-863.14" font-family="Times,serif" font-size="14.00">rDevelopIA2</text>
</g>
<!-- p13 -->
<g id="node26" class="node">
<title>p13</title>
<ellipse fill="none" stroke="black" cx="2337" cy="-866.84" rx="73.39" ry="73.39"/>
<text text-anchor="middle" x="2337" y="-863.14" font-family="Times,serif" font-size="14.00">rRecoveryIA3</text>
</g>
<!-- p14 -->
<g id="node27" class="node">
<title>p14</title>
<ellipse fill="none" stroke="black" cx="2482" cy="-866.84" rx="53.89" ry="53.89"/>
<text text-anchor="middle" x="2482" y="-863.14" font-family="Times,serif" font-size="14.00">rAdmICU</text>
</g>
<!-- p15 -->
<g id="node28" class="node">
<title>p15</title>
<ellipse fill="none" stroke="black" cx="2616" cy="-866.84" rx="61.99" ry="61.99"/>
<text text-anchor="middle" x="2616" y="-863.14" font-family="Times,serif" font-size="14.00">rAdmNICU</text>
</g>
<!-- p16 -->
<g id="node29" class="node">
<title>p16</title>
<ellipse fill="none" stroke="black" cx="2746" cy="-866.84" rx="50.09" ry="50.09"/>
<text text-anchor="middle" x="2746" y="-863.14" font-family="Times,serif" font-size="14.00">rOutICU</text>
</g>
<!-- p17 -->
<g id="node30" class="node">
<title>p17</title>
<ellipse fill="none" stroke="black" cx="2841" cy="-866.84" rx="27.1" ry="27.1"/>
<text text-anchor="middle" x="2841" y="-863.14" font-family="Times,serif" font-size="14.00">rrH</text>
</g>
<!-- p18 -->
<g id="node31" class="node">
<title>p18</title>
<ellipse fill="none" stroke="black" cx="2947" cy="-866.84" rx="61.19" ry="61.19"/>
<text text-anchor="middle" x="2947" y="-863.14" font-family="Times,serif" font-size="14.00">rDeathICU</text>
</g>
<!-- p19 -->
<g id="node32" class="node">
<title>p19</title>
<ellipse fill="none" stroke="black" cx="3095" cy="-866.84" rx="68.79" ry="68.79"/>
<text text-anchor="middle" x="3095" y="-863.14" font-family="Times,serif" font-size="14.00">rDeathNICU</text>
</g>
</g>
</svg>
