<?xml version="1.0" encoding="UTF-8" standalone="no"?>
<!DOCTYPE svg PUBLIC "-//W3C//DTD SVG 1.1//EN"
 "http://www.w3.org/Graphics/SVG/1.1/DTD/svg11.dtd">
<!-- Generated by graphviz version 2.43.0 (0)
 -->
<!-- Title: G Pages: 1 -->
<svg width="5835pt" height="481pt"
 viewBox="0.00 0.00 5835.18 480.60" xmlns="http://www.w3.org/2000/svg" xmlns:xlink="http://www.w3.org/1999/xlink">
<g id="graph0" class="graph" transform="scale(1 1) rotate(0) translate(4 476.6)">
<title>G</title>
<polygon fill="white" stroke="transparent" points="-4,4 -4,-476.6 5831.18,-476.6 5831.18,4 -4,4"/>
<!-- s1 -->
<g id="node1" class="node">
<title>s1</title>
<polygon fill="#9aceeb" stroke="black" points="64,-109.6 0,-109.6 0,-45.6 64,-45.6 64,-109.6"/>
<text text-anchor="middle" x="32" y="-73.9" font-family="Times,serif" font-size="14.00">SChild</text>
</g>
<!-- v12 -->
<g id="node27" class="node">
<title>v12</title>
<text text-anchor="middle" x="345" y="-73.9" font-family="Times,serif" font-size="14.00">SChild * (ββ * (cc_C * (fcc * (IChild / NNC) + fca * (IAdult / NNA))))</text>
</g>
<!-- s1&#45;&gt;v12 -->
<g id="edge1" class="edge">
<title>s1&#45;&gt;v12</title>
<path fill="none" stroke="black" d="M64.13,-71.34C74.49,-70.77 86.9,-70.29 100.7,-69.91"/>
<path fill="none" stroke="transparent" d="M64.24,-73.34C74.56,-72.76 86.97,-72.29 100.75,-71.91"/>
<path fill="none" stroke="black" d="M64.36,-75.34C74.64,-74.76 87.05,-74.29 100.8,-73.91"/>
</g>
<!-- s1&#45;&gt;v12 -->
<g id="edge21" class="edge">
<title>s1&#45;&gt;v12</title>
<path fill="none" stroke="black" d="M64.24,-81.86C71.98,-82.29 80.9,-82.66 90.69,-82.98"/>
<polygon fill="black" stroke="black" points="90.65,-86.48 100.75,-83.28 90.86,-79.49 90.65,-86.48"/>
</g>
<!-- v14 -->
<g id="node29" class="node">
<title>v14</title>
<text text-anchor="middle" x="916.69" y="-19.9" font-family="Times,serif" font-size="14.00">SChild * rAgerAge</text>
</g>
<!-- s1&#45;&gt;v14 -->
<g id="edge3" class="edge">
<title>s1&#45;&gt;v14</title>
<path fill="none" stroke="black" d="M63.28,-52.35C74.8,-46.99 87.89,-42.31 100.59,-39.64 370.02,16.47 699.55,3.03 843.24,-10.67"/>
<path fill="none" stroke="transparent" d="M64.13,-54.16C75.47,-48.88 88.57,-44.19 101,-41.6 369.94,14.47 699.47,1.03 843.05,-12.67"/>
<path fill="none" stroke="black" d="M64.97,-55.98C76.14,-50.76 89.24,-46.07 101.41,-43.56 369.86,12.48 699.39,-0.97 842.86,-14.66"/>
</g>
<!-- s1&#45;&gt;v14 -->
<g id="edge19" class="edge">
<title>s1&#45;&gt;v14</title>
<path fill="none" stroke="black" d="M64.13,-71.09C75.47,-66.88 88.57,-62.19 101,-59.6 363.63,-4.84 684.05,-16.38 832.65,-22.39"/>
<polygon fill="black" stroke="black" points="832.92,-25.91 843.05,-22.82 833.2,-18.91 832.92,-25.91"/>
</g>
<!-- sv1 -->
<g id="node35" class="node">
<title>sv1</title>
<ellipse fill="cornflowerblue" stroke="black" cx="1279.19" cy="-369.6" rx="33.29" ry="33.29"/>
<text text-anchor="middle" x="1279.19" y="-365.9" font-family="Times,serif" font-size="14.00">NNC</text>
</g>
<!-- s1&#45;&gt;sv1 -->
<g id="edge27" class="edge">
<title>s1&#45;&gt;sv1</title>
<path fill="none" stroke="black" d="M44.1,-109.84C75.93,-195.73 176.2,-423.6 344,-423.6 344,-423.6 344,-423.6 1136.69,-423.6 1174.25,-423.6 1213.95,-406.78 1241.71,-391.92"/>
<polygon fill="black" stroke="black" points="1243.59,-394.88 1250.65,-386.98 1240.2,-388.76 1243.59,-394.88"/>
</g>
<!-- s2 -->
<g id="node2" class="node">
<title>s2</title>
<polygon fill="#9aceeb" stroke="black" points="781.1,-284.1 722.1,-284.1 722.1,-225.1 781.1,-225.1 781.1,-284.1"/>
<text text-anchor="middle" x="751.6" y="-250.9" font-family="Times,serif" font-size="14.00">IChild</text>
</g>
<!-- v1 -->
<g id="node16" class="node">
<title>v1</title>
<text text-anchor="middle" x="1443.69" y="-345.9" font-family="Times,serif" font-size="14.00">IChild / NNC</text>
</g>
<!-- s2&#45;&gt;v1 -->
<g id="edge23" class="edge">
<title>s2&#45;&gt;v1</title>
<path fill="none" stroke="black" d="M781.15,-252.07C813.69,-249.41 868.47,-245.6 915.69,-245.6 915.69,-245.6 915.69,-245.6 1280.19,-245.6 1338.24,-245.6 1392.17,-293.26 1420.95,-324.06"/>
<polygon fill="black" stroke="black" points="1418.39,-326.45 1427.71,-331.48 1423.57,-321.73 1418.39,-326.45"/>
</g>
<!-- v13 -->
<g id="node28" class="node">
<title>v13</title>
<text text-anchor="middle" x="916.69" y="-333.9" font-family="Times,serif" font-size="14.00">IChild * rRecr</text>
</g>
<!-- s2&#45;&gt;v13 -->
<g id="edge9" class="edge">
<title>s2&#45;&gt;v13</title>
<path fill="none" stroke="black" d="M782.37,-266.05C795.11,-274.24 810.53,-284.28 825.11,-291.82 844.09,-301.67 866.75,-310.36 884.77,-317.71"/>
<path fill="none" stroke="transparent" d="M781.29,-267.73C794.02,-275.92 809.44,-285.96 824.19,-293.6 843.37,-303.53 866.04,-312.23 884.01,-319.56"/>
<path fill="none" stroke="black" d="M780.21,-269.41C792.93,-277.59 808.35,-287.63 823.27,-295.37 842.65,-305.4 865.32,-314.09 883.26,-321.41"/>
</g>
<!-- s2&#45;&gt;v13 -->
<g id="edge20" class="edge">
<title>s2&#45;&gt;v13</title>
<path fill="none" stroke="black" d="M781.29,-284.26C794.02,-293.92 809.44,-303.96 824.19,-311.6 832.29,-315.79 841,-319.76 849.73,-323.34"/>
<polygon fill="black" stroke="black" points="848.58,-326.65 859.17,-327.06 851.15,-320.14 848.58,-326.65"/>
</g>
<!-- v15 -->
<g id="node30" class="node">
<title>v15</title>
<text text-anchor="middle" x="916.69" y="-195.9" font-family="Times,serif" font-size="14.00">IChild * rAgerAge</text>
</g>
<!-- s2&#45;&gt;v15 -->
<g id="edge5" class="edge">
<title>s2&#45;&gt;v15</title>
<path fill="none" stroke="black" d="M780.63,-237.75C798.45,-230.57 822.03,-222.15 844.52,-214.79"/>
<path fill="none" stroke="transparent" d="M781.38,-239.6C799.12,-232.46 822.7,-224.04 845.15,-216.69"/>
<path fill="none" stroke="black" d="M782.12,-241.46C799.79,-234.34 823.37,-225.92 845.77,-218.59"/>
</g>
<!-- s2&#45;&gt;v15 -->
<g id="edge18" class="edge">
<title>s2&#45;&gt;v15</title>
<path fill="none" stroke="black" d="M781.38,-250.18C805.76,-243.56 841.16,-231.91 869.5,-221.33"/>
<polygon fill="black" stroke="black" points="871.09,-224.47 879.19,-217.64 868.6,-217.92 871.09,-224.47"/>
</g>
<!-- s2&#45;&gt;sv1 -->
<g id="edge28" class="edge">
<title>s2&#45;&gt;sv1</title>
<path fill="none" stroke="black" d="M781.27,-257.91C857.46,-266.91 1060.87,-292.4 1085.19,-310.6 1099.83,-321.55 1088.32,-336.95 1103.19,-347.6 1141.76,-375.22 1197.74,-377.47 1235.93,-374.94"/>
<polygon fill="black" stroke="black" points="1236.52,-378.4 1246.21,-374.11 1235.96,-371.42 1236.52,-378.4"/>
</g>
<!-- s3 -->
<g id="node3" class="node">
<title>s3</title>
<polygon fill="#9aceeb" stroke="black" points="2982.19,-189.1 2917.19,-189.1 2917.19,-124.1 2982.19,-124.1 2982.19,-189.1"/>
<text text-anchor="middle" x="2949.69" y="-152.9" font-family="Times,serif" font-size="14.00">SAdult</text>
</g>
<!-- v18 -->
<g id="node33" class="node">
<title>v18</title>
<text text-anchor="middle" x="3438.69" y="-178.9" font-family="Times,serif" font-size="14.00">SAdult * (ββ * (cc_A * (fac * (IChild / NNC) + faa * (IAdult / NNA))))</text>
</g>
<!-- s3&#45;&gt;v18 -->
<g id="edge7" class="edge">
<title>s3&#45;&gt;v18</title>
<path fill="none" stroke="black" d="M2982.28,-152.74C3031.94,-152.98 3132.1,-157.28 3225.93,-162.59"/>
<path fill="none" stroke="transparent" d="M2982.27,-154.74C3031.85,-154.98 3132.02,-159.28 3225.82,-164.59"/>
<path fill="none" stroke="black" d="M2982.26,-156.74C3031.77,-156.98 3131.93,-161.27 3225.7,-166.58"/>
</g>
<!-- s3&#45;&gt;v18 -->
<g id="edge16" class="edge">
<title>s3&#45;&gt;v18</title>
<path fill="none" stroke="black" d="M2982.27,-161.83C3024.46,-166.13 3103.28,-171.4 3183.64,-175.78"/>
<polygon fill="black" stroke="black" points="3183.78,-179.29 3193.96,-176.34 3184.16,-172.3 3183.78,-179.29"/>
</g>
<!-- sv2 -->
<g id="node36" class="node">
<title>sv2</title>
<ellipse fill="cornflowerblue" stroke="black" cx="4249.69" cy="-161.6" rx="32.49" ry="32.49"/>
<text text-anchor="middle" x="4249.69" y="-157.9" font-family="Times,serif" font-size="14.00">NNA</text>
</g>
<!-- s3&#45;&gt;sv2 -->
<g id="edge24" class="edge">
<title>s3&#45;&gt;sv2</title>
<path fill="none" stroke="black" d="M2982.29,-154.07C3059.81,-148.1 3265.65,-133.6 3437.69,-133.6 3437.69,-133.6 3437.69,-133.6 4148.69,-133.6 4169.47,-133.6 4191.82,-139.28 4210.1,-145.52"/>
<polygon fill="black" stroke="black" points="4208.94,-148.82 4219.53,-148.91 4211.31,-142.23 4208.94,-148.82"/>
</g>
<!-- s4 -->
<g id="node4" class="node">
<title>s4</title>
<polygon fill="#9aceeb" stroke="black" points="3850.19,-232.6 3790.19,-232.6 3790.19,-172.6 3850.19,-172.6 3850.19,-232.6"/>
<text text-anchor="middle" x="3820.19" y="-198.9" font-family="Times,serif" font-size="14.00">IAdult</text>
</g>
<!-- v2 -->
<g id="node17" class="node">
<title>v2</title>
<text text-anchor="middle" x="4372.68" y="-232.9" font-family="Times,serif" font-size="14.00">IAdult / NNA</text>
</g>
<!-- s4&#45;&gt;v2 -->
<g id="edge22" class="edge">
<title>s4&#45;&gt;v2</title>
<path fill="none" stroke="black" d="M3850.4,-204.4C3936.36,-209.71 4189.87,-225.37 4308.77,-232.71"/>
<polygon fill="black" stroke="black" points="4308.62,-236.21 4318.82,-233.33 4309.06,-229.22 4308.62,-236.21"/>
</g>
<!-- v19 -->
<g id="node34" class="node">
<title>v19</title>
<text text-anchor="middle" x="3945.19" y="-251.9" font-family="Times,serif" font-size="14.00">IAdult * rRecr</text>
</g>
<!-- s4&#45;&gt;v19 -->
<g id="edge13" class="edge">
<title>s4&#45;&gt;v19</title>
<path fill="none" stroke="black" d="M3851.03,-207.44C3870.88,-214.77 3896.85,-225.97 3916.56,-235.72"/>
<path fill="none" stroke="transparent" d="M3850.34,-209.32C3870.09,-216.6 3896.06,-227.81 3915.67,-237.51"/>
<path fill="none" stroke="black" d="M3849.65,-211.19C3869.3,-218.44 3895.27,-229.64 3914.79,-239.3"/>
</g>
<!-- s4&#45;&gt;v19 -->
<g id="edge15" class="edge">
<title>s4&#45;&gt;v19</title>
<path fill="none" stroke="black" d="M3850.34,-221C3858.54,-225.04 3867.82,-229.34 3877.28,-233.49"/>
<polygon fill="black" stroke="black" points="3876.18,-236.83 3886.75,-237.58 3878.96,-230.41 3876.18,-236.83"/>
</g>
<!-- s4&#45;&gt;sv2 -->
<g id="edge25" class="edge">
<title>s4&#45;&gt;sv2</title>
<path fill="none" stroke="black" d="M3850.24,-198C3856.17,-197.14 3862.37,-196.29 3868.19,-195.6 3990.97,-180.98 4136.71,-169.62 4206.86,-164.53"/>
<polygon fill="black" stroke="black" points="4207.33,-168 4217.05,-163.79 4206.83,-161.02 4207.33,-168"/>
</g>
<!-- s5 -->
<g id="node5" class="node">
<title>s5</title>
<polygon fill="#9aceeb" stroke="black" points="1168.19,-339.1 1103.19,-339.1 1103.19,-274.1 1168.19,-274.1 1168.19,-339.1"/>
<text text-anchor="middle" x="1135.69" y="-302.9" font-family="Times,serif" font-size="14.00">RChild</text>
</g>
<!-- v16 -->
<g id="node31" class="node">
<title>v16</title>
<text text-anchor="middle" x="1279.19" y="-296.9" font-family="Times,serif" font-size="14.00">RChild * rAgerAge</text>
</g>
<!-- s5&#45;&gt;v16 -->
<g id="edge11" class="edge">
<title>s5&#45;&gt;v16</title>
<path fill="none" stroke="black" d="M1168.25,-297.52C1179.23,-296.42 1191.95,-295.55 1204.83,-294.96"/>
<path fill="none" stroke="transparent" d="M1168.45,-299.51C1179.36,-298.42 1192.08,-297.54 1204.92,-296.96"/>
<path fill="none" stroke="black" d="M1168.65,-301.5C1179.5,-300.41 1192.22,-299.54 1205.01,-298.96"/>
</g>
<!-- s5&#45;&gt;v16 -->
<g id="edge17" class="edge">
<title>s5&#45;&gt;v16</title>
<path fill="none" stroke="black" d="M1168.45,-310.99C1176.46,-311.12 1185.45,-311.04 1194.75,-310.79"/>
<polygon fill="black" stroke="black" points="1195.04,-314.28 1204.92,-310.45 1194.81,-307.29 1195.04,-314.28"/>
</g>
<!-- s5&#45;&gt;sv1 -->
<g id="edge29" class="edge">
<title>s5&#45;&gt;sv1</title>
<path fill="none" stroke="black" d="M1168.45,-320.74C1189.41,-330.07 1217.01,-342.36 1239.29,-352.28"/>
<polygon fill="black" stroke="black" points="1237.92,-355.5 1248.47,-356.37 1240.76,-349.1 1237.92,-355.5"/>
</g>
<!-- s6 -->
<g id="node6" class="node">
<title>s6</title>
<polygon fill="#9aceeb" stroke="black" points="4180.19,-303.1 4115.19,-303.1 4115.19,-238.1 4180.19,-238.1 4180.19,-303.1"/>
<text text-anchor="middle" x="4147.69" y="-266.9" font-family="Times,serif" font-size="14.00">RAdult</text>
</g>
<!-- s6&#45;&gt;sv2 -->
<g id="edge26" class="edge">
<title>s6&#45;&gt;sv2</title>
<path fill="none" stroke="black" d="M4178.69,-237.89C4191.8,-223.61 4207.1,-206.93 4220.05,-192.82"/>
<polygon fill="black" stroke="black" points="4222.79,-195.01 4226.97,-185.27 4217.63,-190.28 4222.79,-195.01"/>
</g>
<!-- p1 -->
<g id="node7" class="node">
<title>p1</title>
<ellipse fill="none" stroke="black" cx="1443.69" cy="-409.6" rx="24.1" ry="24.1"/>
<text text-anchor="middle" x="1443.69" y="-405.9" font-family="Times,serif" font-size="14.00">fcc</text>
</g>
<!-- v3 -->
<g id="node18" class="node">
<title>v3</title>
<text text-anchor="middle" x="1698.69" y="-405.9" font-family="Times,serif" font-size="14.00">fcc * (IChild / NNC)</text>
</g>
<!-- p1&#45;&gt;v3 -->
<g id="edge58" class="edge">
<title>p1&#45;&gt;v3</title>
<path fill="none" stroke="black" d="M1468.04,-409.6C1500.37,-409.6 1560.51,-409.6 1611.14,-409.6"/>
<polygon fill="black" stroke="black" points="1611.46,-413.1 1621.46,-409.6 1611.46,-406.1 1611.46,-413.1"/>
</g>
<!-- p2 -->
<g id="node8" class="node">
<title>p2</title>
<ellipse fill="none" stroke="black" cx="4372.68" cy="-381.6" rx="24.9" ry="24.9"/>
<text text-anchor="middle" x="4372.68" y="-377.9" font-family="Times,serif" font-size="14.00">fca</text>
</g>
<!-- v4 -->
<g id="node19" class="node">
<title>v4</title>
<text text-anchor="middle" x="4540.68" y="-340.9" font-family="Times,serif" font-size="14.00">fca * (IAdult / NNA)</text>
</g>
<!-- p2&#45;&gt;v4 -->
<g id="edge57" class="edge">
<title>p2&#45;&gt;v4</title>
<path fill="none" stroke="black" d="M4397.12,-376.38C4412.08,-373.04 4432.51,-368.49 4453.23,-363.87"/>
<polygon fill="black" stroke="black" points="4454.08,-367.27 4463.08,-361.67 4452.55,-360.43 4454.08,-367.27"/>
</g>
<!-- p3 -->
<g id="node9" class="node">
<title>p3</title>
<ellipse fill="none" stroke="black" cx="1443.69" cy="-240.6" rx="24.9" ry="24.9"/>
<text text-anchor="middle" x="1443.69" y="-236.9" font-family="Times,serif" font-size="14.00">fac</text>
</g>
<!-- v5 -->
<g id="node20" class="node">
<title>v5</title>
<text text-anchor="middle" x="1698.69" y="-236.9" font-family="Times,serif" font-size="14.00">fac * (IChild / NNC)</text>
</g>
<!-- p3&#45;&gt;v5 -->
<g id="edge56" class="edge">
<title>p3&#45;&gt;v5</title>
<path fill="none" stroke="black" d="M1468.49,-240.6C1500.83,-240.6 1560.38,-240.6 1610.68,-240.6"/>
<polygon fill="black" stroke="black" points="1610.93,-244.1 1620.93,-240.6 1610.93,-237.1 1610.93,-244.1"/>
</g>
<!-- p4 -->
<g id="node10" class="node">
<title>p4</title>
<ellipse fill="none" stroke="black" cx="4372.68" cy="-175.6" rx="24.9" ry="24.9"/>
<text text-anchor="middle" x="4372.68" y="-171.9" font-family="Times,serif" font-size="14.00">faa</text>
</g>
<!-- v6 -->
<g id="node21" class="node">
<title>v6</title>
<text text-anchor="middle" x="4540.68" y="-232.9" font-family="Times,serif" font-size="14.00">faa * (IAdult / NNA)</text>
</g>
<!-- p4&#45;&gt;v6 -->
<g id="edge55" class="edge">
<title>p4&#45;&gt;v6</title>
<path fill="none" stroke="black" d="M4396.07,-183.82C4417.7,-191.77 4451.4,-204.16 4480.72,-214.93"/>
<polygon fill="black" stroke="black" points="4479.88,-218.35 4490.47,-218.51 4482.29,-211.78 4479.88,-218.35"/>
</g>
<!-- p5 -->
<g id="node11" class="node">
<title>p5</title>
<ellipse fill="none" stroke="black" cx="4811.68" cy="-412.6" rx="31.7" ry="31.7"/>
<text text-anchor="middle" x="4811.68" y="-408.9" font-family="Times,serif" font-size="14.00">cc_C</text>
</g>
<!-- v9 -->
<g id="node24" class="node">
<title>v9</title>
<text text-anchor="middle" x="5190.68" y="-385.9" font-family="Times,serif" font-size="14.00">cc_C * (fcc * (IChild / NNC) + fca * (IAdult / NNA))</text>
</g>
<!-- p5&#45;&gt;v9 -->
<g id="edge54" class="edge">
<title>p5&#45;&gt;v9</title>
<path fill="none" stroke="black" d="M4843.54,-410.72C4877.7,-408.63 4935.77,-405.09 4994.68,-401.49"/>
<polygon fill="black" stroke="black" points="4995.15,-404.97 5004.91,-400.87 4994.72,-397.99 4995.15,-404.97"/>
</g>
<!-- p6 -->
<g id="node12" class="node">
<title>p6</title>
<ellipse fill="none" stroke="black" cx="2052.19" cy="-275.6" rx="31.4" ry="31.4"/>
<text text-anchor="middle" x="2052.19" y="-271.9" font-family="Times,serif" font-size="14.00">cc_A</text>
</g>
<!-- v10 -->
<g id="node25" class="node">
<title>v10</title>
<text text-anchor="middle" x="2432.19" y="-248.9" font-family="Times,serif" font-size="14.00">cc_A * (fac * (IChild / NNC) + faa * (IAdult / NNA))</text>
</g>
<!-- p6&#45;&gt;v10 -->
<g id="edge53" class="edge">
<title>p6&#45;&gt;v10</title>
<path fill="none" stroke="black" d="M2083.48,-273.75C2117.68,-271.67 2176.35,-268.1 2235.85,-264.48"/>
<polygon fill="black" stroke="black" points="2236.41,-267.96 2246.18,-263.86 2235.99,-260.97 2236.41,-267.96"/>
</g>
<!-- p7 -->
<g id="node13" class="node">
<title>p7</title>
<ellipse fill="none" stroke="black" cx="2432.19" cy="-309.6" rx="21.4" ry="21.4"/>
<text text-anchor="middle" x="2432.19" y="-305.9" font-family="Times,serif" font-size="14.00">ββ</text>
</g>
<!-- v11 -->
<g id="node26" class="node">
<title>v11</title>
<text text-anchor="middle" x="5620.18" y="-385.9" font-family="Times,serif" font-size="14.00">ββ * (cc_C * (fcc * (IChild / NNC) + fca * (IAdult / NNA)))</text>
</g>
<!-- p7&#45;&gt;v11 -->
<g id="edge52" class="edge">
<title>p7&#45;&gt;v11</title>
<path fill="none" stroke="black" d="M2453.9,-309.43C2541.51,-308.84 2890.31,-307.81 3176.19,-325.6 3586.9,-351.16 3692.1,-348.23 4097.19,-420.6 4188.87,-436.98 4207.05,-472.6 4300.18,-472.6 4300.18,-472.6 4300.18,-472.6 5191.68,-472.6 5321.73,-472.6 5470.02,-435.13 5553.32,-410.54"/>
<polygon fill="black" stroke="black" points="5554.57,-413.82 5563.15,-407.61 5552.57,-407.11 5554.57,-413.82"/>
</g>
<!-- v17 -->
<g id="node32" class="node">
<title>v17</title>
<text text-anchor="middle" x="2949.69" y="-259.9" font-family="Times,serif" font-size="14.00">ββ * (cc_A * (fac * (IChild / NNC) + faa * (IAdult / NNA)))</text>
</g>
<!-- p7&#45;&gt;v17 -->
<g id="edge47" class="edge">
<title>p7&#45;&gt;v17</title>
<path fill="none" stroke="black" d="M2453.72,-307.77C2501.61,-303.49 2625.19,-292.47 2736.87,-282.5"/>
<polygon fill="black" stroke="black" points="2737.3,-285.98 2746.95,-281.6 2736.68,-279 2737.3,-285.98"/>
</g>
<!-- p8 -->
<g id="node14" class="node">
<title>p8</title>
<ellipse fill="none" stroke="black" cx="751.6" cy="-359.6" rx="36.29" ry="36.29"/>
<text text-anchor="middle" x="751.6" y="-355.9" font-family="Times,serif" font-size="14.00">rRecr</text>
</g>
<!-- p8&#45;&gt;v13 -->
<g id="edge51" class="edge">
<title>p8&#45;&gt;v13</title>
<path fill="none" stroke="black" d="M787.98,-354.82C805.78,-352.42 827.94,-349.43 848.79,-346.62"/>
<polygon fill="black" stroke="black" points="849.45,-350.07 858.89,-345.26 848.51,-343.13 849.45,-350.07"/>
</g>
<!-- p8&#45;&gt;v19 -->
<g id="edge46" class="edge">
<title>p8&#45;&gt;v19</title>
<path fill="none" stroke="black" d="M785.7,-372.93C857.43,-400.58 1033.07,-461.6 1186.19,-461.6 1186.19,-461.6 1186.19,-461.6 2228.19,-461.6 2560.36,-461.6 3601.5,-307.52 3876.84,-265.87"/>
<polygon fill="black" stroke="black" points="3877.71,-269.28 3887.08,-264.32 3876.67,-262.35 3877.71,-269.28"/>
</g>
<!-- p9 -->
<g id="node15" class="node">
<title>p9</title>
<ellipse fill="none" stroke="black" cx="751.6" cy="-152.6" rx="54.69" ry="54.69"/>
<text text-anchor="middle" x="751.6" y="-148.9" font-family="Times,serif" font-size="14.00">rAgerAge</text>
</g>
<!-- p9&#45;&gt;v14 -->
<g id="edge50" class="edge">
<title>p9&#45;&gt;v14</title>
<path fill="none" stroke="black" d="M795.02,-119.04C823,-96.91 859.04,-68.4 884.42,-48.33"/>
<polygon fill="black" stroke="black" points="886.92,-50.81 892.59,-41.87 882.58,-45.32 886.92,-50.81"/>
</g>
<!-- p9&#45;&gt;v15 -->
<g id="edge49" class="edge">
<title>p9&#45;&gt;v15</title>
<path fill="none" stroke="black" d="M804.2,-167.47C816.54,-171.03 829.95,-174.89 843.05,-178.67"/>
<polygon fill="black" stroke="black" points="842.41,-182.12 852.98,-181.53 844.34,-175.4 842.41,-182.12"/>
</g>
<!-- p9&#45;&gt;v16 -->
<g id="edge48" class="edge">
<title>p9&#45;&gt;v16</title>
<path fill="none" stroke="black" d="M806.29,-152.05C855,-152.74 928.44,-156.76 990.19,-172.6 1083.13,-196.44 1183.87,-247.68 1238.13,-277.59"/>
<polygon fill="black" stroke="black" points="1236.62,-280.76 1247.06,-282.56 1240.02,-274.64 1236.62,-280.76"/>
</g>
<!-- v1&#45;&gt;v3 -->
<g id="edge45" class="edge">
<title>v1&#45;&gt;v3</title>
<path fill="none" stroke="black" d="M1497.42,-362.1C1530.39,-369.92 1573.63,-380.18 1611.5,-389.16"/>
<polygon fill="black" stroke="black" points="1610.97,-392.63 1621.51,-391.53 1612.59,-385.82 1610.97,-392.63"/>
</g>
<!-- v1&#45;&gt;v5 -->
<g id="edge43" class="edge">
<title>v1&#45;&gt;v5</title>
<path fill="none" stroke="black" d="M1486.75,-331.48C1530.53,-312.62 1599.13,-283.06 1646.13,-262.81"/>
<polygon fill="black" stroke="black" points="1647.73,-265.93 1655.53,-258.76 1644.96,-259.51 1647.73,-265.93"/>
</g>
<!-- v2&#45;&gt;v4 -->
<g id="edge44" class="edge">
<title>v2&#45;&gt;v4</title>
<path fill="none" stroke="black" d="M4401.47,-254.67C4429.36,-272.82 4472.47,-300.87 4503.12,-320.81"/>
<polygon fill="black" stroke="black" points="4501.52,-323.94 4511.81,-326.46 4505.34,-318.08 4501.52,-323.94"/>
</g>
<!-- v2&#45;&gt;v6 -->
<g id="edge42" class="edge">
<title>v2&#45;&gt;v6</title>
<path fill="none" stroke="black" d="M4426.21,-236.6C4434.7,-236.6 4443.68,-236.6 4452.72,-236.6"/>
<polygon fill="black" stroke="black" points="4452.94,-240.1 4462.94,-236.6 4452.94,-233.1 4452.94,-240.1"/>
</g>
<!-- v7 -->
<g id="node22" class="node">
<title>v7</title>
<text text-anchor="middle" x="4811.68" y="-340.9" font-family="Times,serif" font-size="14.00">fcc * (IChild / NNC) + fca * (IAdult / NNA)</text>
</g>
<!-- v3&#45;&gt;v7 -->
<g id="edge40" class="edge">
<title>v3&#45;&gt;v7</title>
<path fill="none" stroke="black" d="M1775.7,-411.79C1993.59,-417.9 2639.09,-434.6 3175.19,-434.6 3175.19,-434.6 3175.19,-434.6 4541.68,-434.6 4599.38,-434.6 4600.78,-390.8 4655.18,-371.6 4661.61,-369.33 4668.25,-367.25 4675.01,-365.34"/>
<polygon fill="black" stroke="black" points="4676.23,-368.63 4684.98,-362.66 4674.41,-361.87 4676.23,-368.63"/>
</g>
<!-- v4&#45;&gt;v7 -->
<g id="edge41" class="edge">
<title>v4&#45;&gt;v7</title>
<path fill="none" stroke="black" d="M4618.41,-344.6C4626.87,-344.6 4635.71,-344.6 4644.75,-344.6"/>
<polygon fill="black" stroke="black" points="4645.03,-348.1 4655.03,-344.6 4645.03,-341.1 4645.03,-348.1"/>
</g>
<!-- v8 -->
<g id="node23" class="node">
<title>v8</title>
<text text-anchor="middle" x="2052.19" y="-204.9" font-family="Times,serif" font-size="14.00">fac * (IChild / NNC) + faa * (IAdult / NNA)</text>
</g>
<!-- v5&#45;&gt;v8 -->
<g id="edge38" class="edge">
<title>v5&#45;&gt;v8</title>
<path fill="none" stroke="black" d="M1776.39,-233.62C1808.38,-230.7 1846.87,-227.2 1884.77,-223.75"/>
<polygon fill="black" stroke="black" points="1885.27,-227.22 1894.92,-222.83 1884.64,-220.25 1885.27,-227.22"/>
</g>
<!-- v6&#45;&gt;v8 -->
<g id="edge39" class="edge">
<title>v6&#45;&gt;v8</title>
<path fill="none" stroke="black" d="M4465.91,-254.61C4452.7,-257.7 4439.05,-260.81 4426.18,-263.6 4248.82,-301.98 4202.48,-323.87 4021.19,-315.6 3635.99,-298.02 3542.14,-259.05 3157.19,-236.6 2825.11,-217.23 2436.08,-211.25 2219.81,-209.41"/>
<polygon fill="black" stroke="black" points="2219.67,-205.91 2209.64,-209.33 2219.61,-212.91 2219.67,-205.91"/>
</g>
<!-- v7&#45;&gt;v9 -->
<g id="edge37" class="edge">
<title>v7&#45;&gt;v9</title>
<path fill="none" stroke="black" d="M4963.58,-362.61C4984.9,-365.15 5006.9,-367.78 5028.4,-370.35"/>
<polygon fill="black" stroke="black" points="5028.24,-373.85 5038.58,-371.56 5029.07,-366.9 5028.24,-373.85"/>
</g>
<!-- v8&#45;&gt;v10 -->
<g id="edge36" class="edge">
<title>v8&#45;&gt;v10</title>
<path fill="none" stroke="black" d="M2208.03,-226.62C2227.21,-228.85 2246.88,-231.14 2266.21,-233.39"/>
<polygon fill="black" stroke="black" points="2265.95,-236.89 2276.29,-234.57 2266.76,-229.93 2265.95,-236.89"/>
</g>
<!-- v9&#45;&gt;v11 -->
<g id="edge35" class="edge">
<title>v9&#45;&gt;v11</title>
<path fill="none" stroke="black" d="M5376.4,-389.6C5385.08,-389.6 5393.83,-389.6 5402.58,-389.6"/>
<polygon fill="black" stroke="black" points="5402.86,-393.1 5412.86,-389.6 5402.86,-386.1 5402.86,-393.1"/>
</g>
<!-- v10&#45;&gt;v17 -->
<g id="edge33" class="edge">
<title>v10&#45;&gt;v17</title>
<path fill="none" stroke="black" d="M2618.21,-256.55C2655.05,-257.33 2694.06,-258.16 2731.86,-258.97"/>
<polygon fill="black" stroke="black" points="2731.89,-262.47 2741.96,-259.19 2732.04,-255.47 2731.89,-262.47"/>
</g>
<!-- v11&#45;&gt;v12 -->
<g id="edge34" class="edge">
<title>v11&#45;&gt;v12</title>
<path fill="none" stroke="black" d="M5608.17,-371.28C5564.79,-301.68 5397.95,-57.6 5191.68,-57.6 2431.19,-57.6 2431.19,-57.6 2431.19,-57.6 2166.91,-57.6 2100.97,-69.6 1836.69,-69.6 750.6,-69.6 750.6,-69.6 750.6,-69.6 701.61,-69.6 649.29,-70.19 599.09,-71.06"/>
<polygon fill="black" stroke="black" points="599.02,-67.56 589.08,-71.23 599.14,-74.55 599.02,-67.56"/>
</g>
<!-- v12&#45;&gt;s2 -->
<g id="edge2" class="edge">
<title>v12&#45;&gt;s2</title>
<path fill="none" stroke="black" d="M388.2,-93.88C467,-128.35 637.47,-202.92 713.48,-236.18"/>
<path fill="none" stroke="transparent" d="M387.4,-95.71C466.2,-130.18 636.66,-204.76 712.68,-238.01"/>
<path fill="none" stroke="black" d="M386.6,-97.54C465.4,-132.01 635.86,-206.59 711.88,-239.84"/>
<polygon fill="black" stroke="black" points="711.33,-241.24 721.9,-242.04 714.14,-234.83 711.33,-241.24"/>
<text text-anchor="middle" x="643" y="-225.4" font-family="Times,serif" font-size="14.00">f_inff_infC</text>
</g>
<!-- v13&#45;&gt;s5 -->
<g id="edge10" class="edge">
<title>v13&#45;&gt;s5</title>
<path fill="none" stroke="black" d="M974.14,-327.51C1011.35,-322.2 1059.18,-315.37 1092.87,-310.55"/>
<path fill="none" stroke="transparent" d="M974.42,-329.49C1011.63,-324.18 1059.46,-317.35 1093.15,-312.53"/>
<path fill="none" stroke="black" d="M974.7,-331.47C1011.92,-326.16 1059.74,-319.33 1093.43,-314.51"/>
<polygon fill="black" stroke="black" points="1093.72,-315.99 1103.12,-311.11 1092.73,-309.06 1093.72,-315.99"/>
<text text-anchor="middle" x="1046.69" y="-328.4" font-family="Times,serif" font-size="14.00">f_recf_frsC</text>
</g>
<!-- v14&#45;&gt;s3 -->
<g id="edge4" class="edge">
<title>v14&#45;&gt;s3</title>
<path fill="none" stroke="black" d="M990.59,-25.62C1032.68,-27.62 1086.7,-29.6 1134.69,-29.6 1134.69,-29.6 1134.69,-29.6 1836.69,-29.6 2257.26,-29.63 2761.26,-118.87 2907.46,-146.55"/>
<path fill="none" stroke="transparent" d="M990.49,-27.62C1032.61,-29.61 1086.62,-31.6 1134.69,-31.6 1134.69,-31.6 1134.69,-31.6 1836.69,-31.6 2256.92,-31.6 2760.91,-120.84 2907.09,-148.52"/>
<path fill="none" stroke="black" d="M990.4,-29.62C1032.54,-31.61 1086.55,-33.6 1134.69,-33.6 1134.69,-33.6 1134.69,-33.6 1836.69,-33.6 2256.57,-33.57 2760.56,-122.81 2906.72,-150.48"/>
<polygon fill="black" stroke="black" points="2906.51,-151.97 2916.99,-150.4 2907.82,-145.09 2906.51,-151.97"/>
<text text-anchor="middle" x="1559.19" y="-35.4" font-family="Times,serif" font-size="14.00">f_idSf_aging</text>
</g>
<!-- v15&#45;&gt;s4 -->
<g id="edge6" class="edge">
<title>v15&#45;&gt;s4</title>
<path fill="none" stroke="black" d="M941.16,-179.78C980.07,-152.89 1058.78,-105.88 1134.69,-105.6 1134.69,-105.6 1134.69,-105.6 2053.19,-105.6 2331.12,-105.63 2400.58,-93.63 2679.19,-93.6 2679.19,-93.6 2679.19,-93.6 3439.69,-93.6 3569.29,-93.74 3713.84,-151.6 3781.41,-182.26"/>
<path fill="none" stroke="transparent" d="M942.3,-181.42C981.1,-154.61 1059.81,-107.6 1134.69,-107.6 1134.69,-107.6 1134.69,-107.6 2053.19,-107.6 2331.46,-107.6 2400.92,-95.6 2679.19,-95.6 2679.19,-95.6 2679.19,-95.6 3439.69,-95.6 3568.55,-95.6 3713.1,-153.45 3780.59,-184.08"/>
<path fill="none" stroke="black" d="M943.43,-183.07C982.12,-156.33 1060.83,-109.32 1134.69,-109.6 1134.69,-109.6 1134.69,-109.6 2053.19,-109.6 2331.8,-109.57 2401.26,-97.57 2679.19,-97.6 2679.19,-97.6 2679.19,-97.6 3439.69,-97.6 3567.81,-97.45 3712.35,-155.31 3779.76,-185.9"/>
<polygon fill="black" stroke="black" points="3779.43,-187.4 3789.98,-188.39 3782.35,-181.04 3779.43,-187.4"/>
<text text-anchor="middle" x="1835.69" y="-111.4" font-family="Times,serif" font-size="14.00">f_idIf_aging</text>
</g>
<!-- v16&#45;&gt;s6 -->
<g id="edge12" class="edge">
<title>v16&#45;&gt;s6</title>
<path fill="none" stroke="black" d="M1353.58,-302.57C1514.86,-311.08 1912.77,-330.87 2246.23,-337.6 2958.89,-352.01 3137.38,-324.76 3850.11,-294.6 3960.75,-290.11 3989.65,-302.28 4096.85,-283.63 4099.44,-283.19 4102.14,-282.63 4104.81,-282.02"/>
<path fill="none" stroke="transparent" d="M1353.48,-304.57C1514.76,-313.08 1912.67,-332.87 2246.19,-339.6 2959.19,-353.99 3137.68,-326.73 3850.19,-296.6 3959.98,-291.95 3988.88,-304.12 4097.19,-285.6 4099.84,-285.15 4102.54,-284.59 4105.25,-283.97"/>
<path fill="none" stroke="black" d="M1353.37,-306.56C1514.66,-315.08 1912.57,-334.87 2246.15,-341.6 2959.49,-355.96 3137.98,-328.71 3850.27,-298.6 3959.2,-293.8 3988.1,-305.96 4097.53,-287.57 4100.24,-287.11 4102.94,-286.55 4105.7,-285.92"/>
<polygon fill="black" stroke="black" points="4106.2,-287.34 4115.02,-281.47 4104.46,-280.56 4106.2,-287.34"/>
<text text-anchor="middle" x="2680.19" y="-347.4" font-family="Times,serif" font-size="14.00">f_idRf_aging</text>
</g>
<!-- v17&#45;&gt;v18 -->
<g id="edge32" class="edge">
<title>v17&#45;&gt;v18</title>
<path fill="none" stroke="black" d="M3059.07,-245.57C3136.21,-232.74 3239.83,-215.51 3319.16,-202.31"/>
<polygon fill="black" stroke="black" points="3319.91,-205.74 3329.2,-200.64 3318.76,-198.83 3319.91,-205.74"/>
</g>
<!-- v18&#45;&gt;s4 -->
<g id="edge8" class="edge">
<title>v18&#45;&gt;s4</title>
<path fill="none" stroke="black" d="M3683.36,-193.44C3720.87,-195.41 3755.32,-197.23 3780.16,-198.54"/>
<path fill="none" stroke="transparent" d="M3683.25,-195.43C3720.77,-197.41 3755.22,-199.23 3780.05,-200.54"/>
<path fill="none" stroke="black" d="M3683.15,-197.43C3720.66,-199.41 3755.11,-201.22 3779.95,-202.53"/>
<polygon fill="black" stroke="black" points="3779.92,-204.03 3790.09,-201.06 3780.29,-197.04 3779.92,-204.03"/>
<text text-anchor="middle" x="3736.69" y="-204.4" font-family="Times,serif" font-size="14.00">f_inff_infA</text>
</g>
<!-- v19&#45;&gt;s6 -->
<g id="edge14" class="edge">
<title>v19&#45;&gt;s6</title>
<path fill="none" stroke="black" d="M4003.53,-257.88C4035.79,-260.3 4075.41,-263.26 4104.8,-265.46"/>
<path fill="none" stroke="transparent" d="M4003.38,-259.88C4035.64,-262.29 4075.26,-265.25 4104.65,-267.45"/>
<path fill="none" stroke="black" d="M4003.23,-261.87C4035.49,-264.28 4075.11,-267.25 4104.5,-269.45"/>
<polygon fill="black" stroke="black" points="4104.76,-270.97 4114.99,-268.23 4105.28,-263.99 4104.76,-270.97"/>
<text text-anchor="middle" x="4059.19" y="-270.4" font-family="Times,serif" font-size="14.00">f_recf_frsA</text>
</g>
<!-- sv1&#45;&gt;v1 -->
<g id="edge31" class="edge">
<title>sv1&#45;&gt;v1</title>
<path fill="none" stroke="black" d="M1312.3,-365.65C1331.63,-363.27 1356.92,-360.15 1380.07,-357.31"/>
<polygon fill="black" stroke="black" points="1380.69,-360.76 1390.18,-356.06 1379.83,-353.81 1380.69,-360.76"/>
</g>
<!-- sv2&#45;&gt;v2 -->
<g id="edge30" class="edge">
<title>sv2&#45;&gt;v2</title>
<path fill="none" stroke="black" d="M4276.15,-180.68C4288.82,-189.85 4304.52,-200.74 4319.18,-209.6 4321.37,-210.92 4323.63,-212.24 4325.93,-213.55"/>
<polygon fill="black" stroke="black" points="4324.45,-216.73 4334.9,-218.49 4327.83,-210.6 4324.45,-216.73"/>
</g>
</g>
</svg>
