<?xml version="1.0" encoding="UTF-8" standalone="no"?>
<!DOCTYPE svg PUBLIC "-//W3C//DTD SVG 1.1//EN"
 "http://www.w3.org/Graphics/SVG/1.1/DTD/svg11.dtd">
<!-- Generated by graphviz version 2.43.0 (0)
 -->
<!-- Title: G Pages: 1 -->
<svg width="1351pt" height="520pt"
 viewBox="0.00 0.00 1350.67 520.49" xmlns="http://www.w3.org/2000/svg" xmlns:xlink="http://www.w3.org/1999/xlink">
<g id="graph0" class="graph" transform="scale(1 1) rotate(0) translate(4 516.49)">
<title>G</title>
<polygon fill="white" stroke="transparent" points="-4,4 -4,-516.49 1346.67,-516.49 1346.67,4 -4,4"/>
<!-- s1 -->
<g id="node1" class="node">
<title>s1</title>
<polygon fill="#9aceeb" stroke="black" points="68.05,-154.05 32.05,-154.05 32.05,-118.05 68.05,-118.05 68.05,-154.05"/>
<text text-anchor="middle" x="50.05" y="-132.35" font-family="Times,serif" font-size="14.00">S</text>
</g>
<!-- v3 -->
<g id="node11" class="node">
<title>v3</title>
<text text-anchor="middle" x="188.09" y="-132.35" font-family="Times,serif" font-size="14.00">S * rvaccine</text>
</g>
<!-- s1&#45;&gt;v3 -->
<g id="edge1" class="edge">
<title>s1&#45;&gt;v3</title>
<path fill="none" stroke="black" d="M68.06,-129.38C85.46,-127.55 112.8,-126.92 137,-127.51"/>
<path fill="none" stroke="transparent" d="M68.28,-131.37C85.51,-129.55 112.84,-128.92 136.95,-129.51"/>
<path fill="none" stroke="black" d="M68.49,-133.36C85.55,-131.55 112.89,-130.92 136.9,-131.51"/>
</g>
<!-- s1&#45;&gt;v3 -->
<g id="edge8" class="edge">
<title>s1&#45;&gt;v3</title>
<path fill="none" stroke="black" d="M68.28,-140.72C83.15,-142.3 105.56,-142.97 126.92,-142.76"/>
<polygon fill="black" stroke="black" points="127.01,-146.25 136.95,-142.58 126.89,-139.26 127.01,-146.25"/>
</g>
<!-- sv1 -->
<g id="node13" class="node">
<title>sv1</title>
<ellipse fill="cornflowerblue" stroke="black" cx="1323.82" cy="-283.05" rx="18.7" ry="18.7"/>
<text text-anchor="middle" x="1323.82" y="-279.35" font-family="Times,serif" font-size="14.00">N</text>
</g>
<!-- s1&#45;&gt;sv1 -->
<g id="edge10" class="edge">
<title>s1&#45;&gt;sv1</title>
<path fill="none" stroke="black" d="M68.22,-127.53C99.07,-112.55 162.88,-83.05 187.09,-83.05 187.09,-83.05 187.09,-83.05 1250.97,-83.05 1286.93,-83.05 1309.79,-199.01 1318.64,-254.34"/>
<polygon fill="black" stroke="black" points="1315.19,-254.89 1320.18,-264.23 1322.1,-253.81 1315.19,-254.89"/>
</g>
<!-- s2 -->
<g id="node2" class="node">
<title>s2</title>
<polygon fill="#9aceeb" stroke="black" points="449.53,-264.05 413.53,-264.05 413.53,-228.05 449.53,-228.05 449.53,-264.05"/>
<text text-anchor="middle" x="431.53" y="-242.35" font-family="Times,serif" font-size="14.00">V</text>
</g>
<!-- v1 -->
<g id="node9" class="node">
<title>v1</title>
<text text-anchor="middle" x="679.97" y="-325.35" font-family="Times,serif" font-size="14.00">evaccine_complement * V</text>
</g>
<!-- s2&#45;&gt;v1 -->
<g id="edge9" class="edge">
<title>s2&#45;&gt;v1</title>
<path fill="none" stroke="black" d="M449.83,-248.44C472.69,-252.2 513.62,-260.99 543.97,-279.05 553.69,-284.83 552.19,-291.36 561.97,-297.05 568.63,-300.91 575.77,-304.33 583.13,-307.34"/>
<polygon fill="black" stroke="black" points="581.94,-310.64 592.53,-310.95 584.45,-304.1 581.94,-310.64"/>
</g>
<!-- v2 -->
<g id="node10" class="node">
<title>v2</title>
<text text-anchor="middle" x="1016.47" y="-279.35" font-family="Times,serif" font-size="14.00">(evaccine_complement * V) * lambda</text>
</g>
<!-- s2&#45;&gt;v2 -->
<g id="edge3" class="edge">
<title>s2&#45;&gt;v2</title>
<path fill="none" stroke="black" d="M450.14,-246.61C477.78,-250.56 533.64,-258.14 581.14,-262.05 680.2,-270.21 792.38,-275.01 877.89,-277.74"/>
<path fill="none" stroke="transparent" d="M449.86,-248.59C477.51,-252.54 533.37,-260.12 580.97,-264.05 680.11,-272.21 792.29,-277.01 877.83,-279.73"/>
<path fill="none" stroke="black" d="M449.57,-250.57C477.24,-254.52 533.1,-262.11 580.81,-266.04 680.03,-274.21 792.21,-279 877.77,-281.73"/>
</g>
<!-- v4 -->
<g id="node12" class="node">
<title>v4</title>
<text text-anchor="middle" x="679.97" y="-125.35" font-family="Times,serif" font-size="14.00">V * rdeath</text>
</g>
<!-- s2&#45;&gt;v4 -->
<g id="edge5" class="edge">
<title>s2&#45;&gt;v4</title>
<path fill="none" stroke="black" d="M449.15,-234.68C472.48,-226.5 514.18,-214.77 542.78,-193.44 563.77,-179.78 556.76,-162.83 579.86,-145.39 596.48,-134.32 616.84,-127.81 635.08,-124.56"/>
<path fill="none" stroke="transparent" d="M449.81,-236.57C473.02,-228.43 514.72,-216.7 543.97,-195.05 565.62,-179.02 558.61,-162.06 580.97,-147.05 597.09,-136.22 617.45,-129.71 635.43,-126.53"/>
<path fill="none" stroke="black" d="M450.47,-238.46C473.56,-230.35 515.27,-218.62 545.16,-196.65 567.47,-178.25 560.46,-161.3 582.09,-148.71 597.69,-138.13 618.05,-131.62 635.78,-128.5"/>
</g>
<!-- s2&#45;&gt;v4 -->
<g id="edge7" class="edge">
<title>s2&#45;&gt;v4</title>
<path fill="none" stroke="black" d="M449.81,-248.72C473.02,-246.43 514.72,-234.7 543.97,-213.05 565.62,-197.02 558.61,-180.06 580.97,-165.05 594.19,-156.17 610.27,-150.19 625.54,-145.78"/>
<polygon fill="black" stroke="black" points="626.7,-149.1 635.43,-143.1 624.86,-142.34 626.7,-149.1"/>
</g>
<!-- s2&#45;&gt;sv1 -->
<g id="edge11" class="edge">
<title>s2&#45;&gt;sv1</title>
<path fill="none" stroke="black" d="M449.65,-246.88C473.43,-248.9 516.63,-255.76 543.97,-279.05 572.88,-303.66 550.91,-332.85 580.97,-356.05 616.1,-383.15 634.6,-375.05 678.97,-375.05 678.97,-375.05 678.97,-375.05 1250.97,-375.05 1284,-375.05 1304.1,-337.75 1314.34,-310.66"/>
<polygon fill="black" stroke="black" points="1317.64,-311.82 1317.67,-301.22 1311.04,-309.48 1317.64,-311.82"/>
</g>
<!-- s3 -->
<g id="node3" class="node">
<title>s3</title>
<polygon fill="#9aceeb" stroke="black" points="1267.97,-301.05 1231.97,-301.05 1231.97,-265.05 1267.97,-265.05 1267.97,-301.05"/>
<text text-anchor="middle" x="1249.97" y="-279.35" font-family="Times,serif" font-size="14.00">I</text>
</g>
<!-- s3&#45;&gt;sv1 -->
<g id="edge12" class="edge">
<title>s3&#45;&gt;sv1</title>
<path fill="none" stroke="black" d="M1268,-283.05C1275.99,-283.05 1285.73,-283.05 1294.77,-283.05"/>
<polygon fill="black" stroke="black" points="1294.91,-286.55 1304.91,-283.05 1294.91,-279.55 1294.91,-286.55"/>
</g>
<!-- p1 -->
<g id="node4" class="node">
<title>p1</title>
<ellipse fill="none" stroke="black" cx="50.05" cy="-50.05" rx="50.09" ry="50.09"/>
<text text-anchor="middle" x="50.05" y="-46.35" font-family="Times,serif" font-size="14.00">rvaccine</text>
</g>
<!-- p1&#45;&gt;v3 -->
<g id="edge15" class="edge">
<title>p1&#45;&gt;v3</title>
<path fill="none" stroke="black" d="M92.97,-76.55C111.06,-87.98 132.04,-101.25 149.6,-112.35"/>
<polygon fill="black" stroke="black" points="148.11,-115.55 158.44,-117.93 151.85,-109.63 148.11,-115.55"/>
</g>
<!-- p2 -->
<g id="node5" class="node">
<title>p2</title>
<ellipse fill="none" stroke="black" cx="431.53" cy="-153.05" rx="41.69" ry="41.69"/>
<text text-anchor="middle" x="431.53" y="-149.35" font-family="Times,serif" font-size="14.00">rdeath</text>
</g>
<!-- p2&#45;&gt;v4 -->
<g id="edge14" class="edge">
<title>p2&#45;&gt;v4</title>
<path fill="none" stroke="black" d="M472.95,-149.11C514.46,-145.07 579.31,-138.75 625.15,-134.29"/>
<polygon fill="black" stroke="black" points="625.59,-137.76 635.2,-133.31 624.91,-130.79 625.59,-137.76"/>
</g>
<!-- p3 -->
<g id="node6" class="node">
<title>p3</title>
<ellipse fill="none" stroke="black" cx="679.97" cy="-210.05" rx="44.69" ry="44.69"/>
<text text-anchor="middle" x="679.97" y="-206.35" font-family="Times,serif" font-size="14.00">lambda</text>
</g>
<!-- p3&#45;&gt;v2 -->
<g id="edge16" class="edge">
<title>p3&#45;&gt;v2</title>
<path fill="none" stroke="black" d="M724.02,-219.44C774.03,-230.35 858,-248.68 922.99,-262.86"/>
<polygon fill="black" stroke="black" points="922.33,-266.3 932.84,-265.01 923.82,-259.46 922.33,-266.3"/>
</g>
<!-- p4 -->
<g id="node7" class="node">
<title>p4</title>
<ellipse fill="none" stroke="black" cx="431.53" cy="-400.05" rx="112.38" ry="112.38"/>
<text text-anchor="middle" x="431.53" y="-396.35" font-family="Times,serif" font-size="14.00">evaccine_complement</text>
</g>
<!-- p4&#45;&gt;v1 -->
<g id="edge17" class="edge">
<title>p4&#45;&gt;v1</title>
<path fill="none" stroke="black" d="M539.91,-369.11C562.41,-362.63 585.64,-355.94 606.51,-349.92"/>
<polygon fill="black" stroke="black" points="607.59,-353.25 616.23,-347.12 605.66,-346.53 607.59,-353.25"/>
</g>
<!-- fs_2d -->
<g id="node8" class="node">
<title>fs_2d</title>
<ellipse fill="white" stroke="white" cx="1016.47" cy="-129.05" rx="1.8" ry="1.8"/>
</g>
<!-- v1&#45;&gt;v2 -->
<g id="edge13" class="edge">
<title>v1&#45;&gt;v2</title>
<path fill="none" stroke="black" d="M779.07,-315.55C808.95,-311.45 842.39,-306.85 874.51,-302.43"/>
<polygon fill="black" stroke="black" points="875,-305.9 884.43,-301.07 874.05,-298.96 875,-305.9"/>
</g>
<!-- v2&#45;&gt;s3 -->
<g id="edge4" class="edge">
<title>v2&#45;&gt;s3</title>
<path fill="none" stroke="black" d="M1155.14,-281.05C1180.31,-281.05 1204.05,-281.05 1221.35,-281.05"/>
<path fill="none" stroke="transparent" d="M1155.14,-283.05C1180.31,-283.05 1204.05,-283.05 1221.35,-283.05"/>
<path fill="none" stroke="black" d="M1155.14,-285.05C1180.31,-285.05 1204.05,-285.05 1221.35,-285.05"/>
<polygon fill="black" stroke="black" points="1221.74,-286.55 1231.74,-283.05 1221.74,-279.55 1221.74,-286.55"/>
<text text-anchor="middle" x="1193.47" y="-286.85" font-family="Times,serif" font-size="14.00">f_infV</text>
</g>
<!-- v3&#45;&gt;s2 -->
<g id="edge2" class="edge">
<title>v3&#45;&gt;s2</title>
<path fill="none" stroke="black" d="M221.84,-152.31C247.81,-166.69 285.75,-186.92 319.91,-202.22 348.09,-214.85 381.49,-227.09 404.26,-235.04"/>
<path fill="none" stroke="transparent" d="M220.88,-154.06C246.87,-168.45 284.81,-188.69 319.09,-204.05 347.4,-216.73 380.8,-228.97 403.6,-236.93"/>
<path fill="none" stroke="black" d="M219.91,-155.81C245.93,-170.22 283.86,-190.45 318.27,-205.87 346.71,-218.6 380.11,-230.85 402.94,-238.82"/>
<polygon fill="black" stroke="black" points="402.68,-240.32 413.28,-240.28 404.97,-233.7 402.68,-240.32"/>
<text text-anchor="middle" x="279.09" y="-198.85" font-family="Times,serif" font-size="14.00">f_vacc</text>
</g>
<!-- v4&#45;&gt;fs_2d -->
<g id="edge6" class="edge">
<title>v4&#45;&gt;fs_2d</title>
<path fill="none" stroke="black" d="M724.7,-127.05C802.64,-127.05 961.44,-127.05 1004.49,-127.05"/>
<path fill="none" stroke="transparent" d="M724.7,-129.05C802.64,-129.05 961.44,-129.05 1004.49,-129.05"/>
<path fill="none" stroke="black" d="M724.7,-131.05C802.64,-131.05 961.44,-131.05 1004.49,-131.05"/>
<polygon fill="black" stroke="black" points="1004.57,-132.55 1014.57,-129.05 1004.57,-125.55 1004.57,-132.55"/>
<text text-anchor="middle" x="828.47" y="-132.85" font-family="Times,serif" font-size="14.00">f_deathV</text>
</g>
</g>
</svg>
